<svg width="78" height="78" viewBox="0 0 78 78" fill="none" xmlns="http://www.w3.org/2000/svg">
<g filter="url(#filter0_d_132_801)">
<rect x="9" y="5" width="60" height="60" rx="16" fill="#1F3F66" shape-rendering="crispEdges"/>
<rect x="9.15" y="5.15" width="59.7" height="59.7" rx="15.85" stroke="#A6A6A6" stroke-width="0.3" shape-rendering="crispEdges"/>
<g clip-path="url(#clip0_132_801)">
<path d="M47.4286 42.2857V45H31.1429V42.2857C31.1429 42.2857 31.1429 36.8571 39.2857 36.8571C47.4286 36.8571 47.4286 42.2857 47.4286 42.2857ZM43.3571 30.0714C43.3571 29.2662 43.1184 28.479 42.671 27.8095C42.2236 27.1399 41.5877 26.6181 40.8438 26.3099C40.0998 26.0018 39.2812 25.9211 38.4914 26.0782C37.7016 26.2353 36.9762 26.6231 36.4068 27.1925C35.8374 27.7619 35.4496 28.4874 35.2925 29.2771C35.1354 30.0669 35.216 30.8855 35.5242 31.6295C35.8324 32.3735 36.3542 33.0093 37.0237 33.4567C37.6933 33.9041 38.4805 34.1429 39.2857 34.1429C40.3655 34.1429 41.4011 33.7139 42.1646 32.9504C42.9282 32.1868 43.3571 31.1512 43.3571 30.0714ZM47.7 36.9386C48.4419 37.623 49.0399 38.4483 49.4594 39.3664C49.8788 40.2845 50.1111 41.2769 50.1429 42.2857V45H54.2143V42.2857C54.2143 42.2857 54.2143 37.6036 47.7 36.9386ZM46.0714 26C45.6614 26 45.2538 26.0641 44.8636 26.19C45.6576 27.3286 46.0833 28.6833 46.0833 30.0714C46.0833 31.4595 45.6576 32.8143 44.8636 33.9529C45.2538 34.0787 45.6614 34.1428 46.0714 34.1429C47.1512 34.1429 48.1868 33.7139 48.9504 32.9504C49.7139 32.1868 50.1429 31.1512 50.1429 30.0714C50.1429 28.9916 49.7139 27.956 48.9504 27.1925C48.1868 26.429 47.1512 26 46.0714 26ZM31.6043 31.32L33.1786 33.2336L26.7321 39.68L23 35.6086L24.5743 34.0343L26.7321 36.1786L31.6043 31.32Z" fill="white"/>
</g>
</g>
<defs>
<filter id="filter0_d_132_801" x="0" y="0" width="78" height="78" filterUnits="userSpaceOnUse" color-interpolation-filters="sRGB">
<feFlood flood-opacity="0" result="BackgroundImageFix"/>
<feColorMatrix in="SourceAlpha" type="matrix" values="0 0 0 0 0 0 0 0 0 0 0 0 0 0 0 0 0 0 127 0" result="hardAlpha"/>
<feOffset dy="4"/>
<feGaussianBlur stdDeviation="4.5"/>
<feComposite in2="hardAlpha" operator="out"/>
<feColorMatrix type="matrix" values="0 0 0 0 0 0 0 0 0 0 0 0 0 0 0 0 0 0 0.05 0"/>
<feBlend mode="normal" in2="BackgroundImageFix" result="effect1_dropShadow_132_801"/>
<feBlend mode="normal" in="SourceGraphic" in2="effect1_dropShadow_132_801" result="shape"/>
</filter>
<clipPath id="clip0_132_801">
<rect width="30" height="30" fill="white" transform="translate(24 20)"/>
</clipPath>
</defs>
</svg>
