<svg width="78" height="78" viewBox="0 0 78 78" fill="none" xmlns="http://www.w3.org/2000/svg">
<g filter="url(#filter0_d_132_164)">
<rect x="9" y="5" width="60" height="60" rx="16" fill="#1F3F66" shape-rendering="crispEdges"/>
<rect x="9.15" y="5.15" width="59.7" height="59.7" rx="15.85" stroke="#A6A6A6" stroke-width="0.3" shape-rendering="crispEdges"/>
<path d="M47.3333 39H44.6667V41.6667H47.3333M47.3333 33.6667H44.6667V36.3333H47.3333M50 44.3333H39.3333V41.6667H42V39H39.3333V36.3333H42V33.6667H39.3333V31H50M36.6667 28.3333H34V25.6667H36.6667M36.6667 33.6667H34V31H36.6667M36.6667 39H34V36.3333H36.6667M36.6667 44.3333H34V41.6667H36.6667M31.3333 28.3333H28.6667V25.6667H31.3333M31.3333 33.6667H28.6667V31H31.3333M31.3333 39H28.6667V36.3333H31.3333M31.3333 44.3333H28.6667V41.6667H31.3333M39.3333 28.3333V23H26V47H52.6667V28.3333H39.3333Z" fill="white"/>
</g>
<defs>
<filter id="filter0_d_132_164" x="0" y="0" width="78" height="78" filterUnits="userSpaceOnUse" color-interpolation-filters="sRGB">
<feFlood flood-opacity="0" result="BackgroundImageFix"/>
<feColorMatrix in="SourceAlpha" type="matrix" values="0 0 0 0 0 0 0 0 0 0 0 0 0 0 0 0 0 0 127 0" result="hardAlpha"/>
<feOffset dy="4"/>
<feGaussianBlur stdDeviation="4.5"/>
<feComposite in2="hardAlpha" operator="out"/>
<feColorMatrix type="matrix" values="0 0 0 0 0 0 0 0 0 0 0 0 0 0 0 0 0 0 0.05 0"/>
<feBlend mode="normal" in2="BackgroundImageFix" result="effect1_dropShadow_132_164"/>
<feBlend mode="normal" in="SourceGraphic" in2="effect1_dropShadow_132_164" result="shape"/>
</filter>
</defs>
</svg>
