<svg width="78" height="78" viewBox="0 0 78 78" fill="none" xmlns="http://www.w3.org/2000/svg">
<g filter="url(#filter0_d_132_200)">
<rect x="9" y="5" width="60" height="60" rx="16" fill="#1F3F66" shape-rendering="crispEdges"/>
<rect x="9.15" y="5.15" width="59.7" height="59.7" rx="15.85" stroke="#A6A6A6" stroke-width="0.3" shape-rendering="crispEdges"/>
<path d="M29 25.1818C29 24.3379 29.3352 23.5286 29.9319 22.9319C30.5286 22.3352 31.3379 22 32.1818 22H46.8182C47.236 22 47.6498 22.0823 48.0358 22.2422C48.4218 22.4021 48.7726 22.6365 49.0681 22.9319C49.3635 23.2274 49.5979 23.5782 49.7578 23.9642C49.9177 24.3502 50 24.764 50 25.1818V43.3182C50 43.5713 49.8994 43.8141 49.7204 43.9931C49.5414 44.1722 49.2986 44.2727 49.0455 44.2727H30.9091C30.9091 44.6103 31.0432 44.934 31.2819 45.1727C31.5205 45.4114 31.8443 45.5455 32.1818 45.5455H49.0455C49.2986 45.5455 49.5414 45.646 49.7204 45.825C49.8994 46.004 50 46.2468 50 46.5C50 46.7532 49.8994 46.996 49.7204 47.175C49.5414 47.354 49.2986 47.4545 49.0455 47.4545H32.1818C31.3379 47.4545 30.5286 47.1193 29.9319 46.5226C29.3352 45.9259 29 45.1166 29 44.2727V25.1818ZM39.5 29.6364C39.8375 29.6364 40.1613 29.5023 40.4 29.2636C40.6386 29.0249 40.7727 28.7012 40.7727 28.3636C40.7727 28.0261 40.6386 27.7024 40.4 27.4637C40.1613 27.225 39.8375 27.0909 39.5 27.0909C39.1625 27.0909 38.8387 27.225 38.6 27.4637C38.3614 27.7024 38.2273 28.0261 38.2273 28.3636C38.2273 28.7012 38.3614 29.0249 38.6 29.2636C38.8387 29.5023 39.1625 29.6364 39.5 29.6364ZM38.5455 31.8636V38.2273C38.5455 38.4804 38.646 38.7232 38.825 38.9022C39.004 39.0812 39.2468 39.1818 39.5 39.1818C39.7532 39.1818 39.996 39.0812 40.175 38.9022C40.354 38.7232 40.4545 38.4804 40.4545 38.2273V31.8636C40.4545 31.6105 40.354 31.3677 40.175 31.1887C39.996 31.0097 39.7532 30.9091 39.5 30.9091C39.2468 30.9091 39.004 31.0097 38.825 31.1887C38.646 31.3677 38.5455 31.6105 38.5455 31.8636Z" fill="white"/>
</g>
<defs>
<filter id="filter0_d_132_200" x="0" y="0" width="78" height="78" filterUnits="userSpaceOnUse" color-interpolation-filters="sRGB">
<feFlood flood-opacity="0" result="BackgroundImageFix"/>
<feColorMatrix in="SourceAlpha" type="matrix" values="0 0 0 0 0 0 0 0 0 0 0 0 0 0 0 0 0 0 127 0" result="hardAlpha"/>
<feOffset dy="4"/>
<feGaussianBlur stdDeviation="4.5"/>
<feComposite in2="hardAlpha" operator="out"/>
<feColorMatrix type="matrix" values="0 0 0 0 0 0 0 0 0 0 0 0 0 0 0 0 0 0 0.05 0"/>
<feBlend mode="normal" in2="BackgroundImageFix" result="effect1_dropShadow_132_200"/>
<feBlend mode="normal" in="SourceGraphic" in2="effect1_dropShadow_132_200" result="shape"/>
</filter>
</defs>
</svg>
