<svg width="78" height="78" viewBox="0 0 78 78" fill="none" xmlns="http://www.w3.org/2000/svg">
<g filter="url(#filter0_d_132_156)">
<rect x="9" y="5" width="60" height="60" rx="16" fill="#1F3F66" shape-rendering="crispEdges"/>
<rect x="9.15" y="5.15" width="59.7" height="59.7" rx="15.85" stroke="#A6A6A6" stroke-width="0.3" shape-rendering="crispEdges"/>
<path d="M39.4345 38.2778H35.2679M34.5554 48H44.3137C45.1889 48 46.0518 47.7932 46.8319 47.3964C47.612 46.9997 48.2874 46.4242 48.8029 45.717C49.3185 45.0097 49.6597 44.1906 49.7986 43.3265C49.9376 42.4624 49.8704 41.5777 49.6026 40.7444L47.2332 33.375C46.7833 31.9753 45.9007 30.7545 44.7127 29.8884C43.5246 29.0223 42.0923 28.5556 40.622 28.5556H38.247C36.7768 28.5556 35.3445 29.0223 34.1564 29.8884C32.9684 30.7545 32.0858 31.9753 31.6359 33.375L29.2665 40.7444C28.9987 41.5777 28.9315 42.4624 29.0705 43.3265C29.2094 44.1906 29.5506 45.0097 30.0661 45.717C30.5817 46.4242 31.2571 46.9997 32.0372 47.3964C32.8173 47.7932 33.6802 48 34.5554 48ZM43.6012 23C42.6753 26.7037 41.2864 28.5556 39.4345 28.5556C37.5827 28.5556 36.1938 26.7037 35.2679 23H43.6012Z" stroke="white" stroke-width="2.77778" stroke-linecap="round" stroke-linejoin="round"/>
<path d="M42.2125 34.3502C41.584 34.1277 40.9113 34.0593 40.2508 34.1507C39.5904 34.242 38.9615 34.4906 38.417 34.8754C37.8726 35.2602 37.4284 35.7701 37.1218 36.3622C36.8153 36.9543 36.6553 37.6113 36.6553 38.278C36.6553 38.9447 36.8153 39.6017 37.1218 40.1938C37.4284 40.7859 37.8726 41.2958 38.417 41.6806C38.9615 42.0654 39.5904 42.3139 40.2508 42.4053C40.9113 42.4967 41.584 42.4283 42.2125 42.2058" stroke="white" stroke-width="2.77778" stroke-linecap="round" stroke-linejoin="round"/>
</g>
<defs>
<filter id="filter0_d_132_156" x="0" y="0" width="78" height="78" filterUnits="userSpaceOnUse" color-interpolation-filters="sRGB">
<feFlood flood-opacity="0" result="BackgroundImageFix"/>
<feColorMatrix in="SourceAlpha" type="matrix" values="0 0 0 0 0 0 0 0 0 0 0 0 0 0 0 0 0 0 127 0" result="hardAlpha"/>
<feOffset dy="4"/>
<feGaussianBlur stdDeviation="4.5"/>
<feComposite in2="hardAlpha" operator="out"/>
<feColorMatrix type="matrix" values="0 0 0 0 0 0 0 0 0 0 0 0 0 0 0 0 0 0 0.05 0"/>
<feBlend mode="normal" in2="BackgroundImageFix" result="effect1_dropShadow_132_156"/>
<feBlend mode="normal" in="SourceGraphic" in2="effect1_dropShadow_132_156" result="shape"/>
</filter>
</defs>
</svg>
