<svg width="78" height="78" viewBox="0 0 78 78" fill="none" xmlns="http://www.w3.org/2000/svg">
<g filter="url(#filter0_d_132_820)">
<rect x="9" y="5" width="60" height="60" rx="16" fill="#1F3F66" shape-rendering="crispEdges"/>
<rect x="9.15" y="5.15" width="59.7" height="59.7" rx="15.85" stroke="#A6A6A6" stroke-width="0.3" shape-rendering="crispEdges"/>
<path d="M40.7893 33.5209C40.6821 33.5202 40.579 33.5619 40.5024 33.6369C40.4259 33.712 40.3821 33.8142 40.3807 33.9214V36.9142C40.3821 37.0216 40.4261 37.1241 40.5029 37.1992C40.5798 37.2742 40.6832 37.3158 40.7906 37.3147H49.8056C49.913 37.3158 50.0165 37.2742 50.0933 37.1992C50.1701 37.1241 50.2141 37.0216 50.2155 36.9142V33.9214C50.2141 33.814 50.1701 33.7115 50.0933 33.6365C50.0165 33.5614 49.913 33.5198 49.8056 33.5209H40.7893ZM46.3176 24.0014C47.565 24.0609 48.4621 24.3071 49.0303 24.8294C49.5918 25.3462 49.88 26.0944 49.9368 27.0848V29.922C49.934 30.1636 49.8353 30.3942 49.6626 30.5632C49.4898 30.7321 49.257 30.8256 49.0154 30.8231C48.8957 30.8245 48.7768 30.8023 48.6656 30.7578C48.5544 30.7133 48.4531 30.6473 48.3674 30.5637C48.2817 30.48 48.2134 30.3803 48.1662 30.2702C48.1191 30.1601 48.0941 30.0418 48.0927 29.922L48.094 27.1362C48.0643 26.6221 47.9412 26.3028 47.7653 26.1404C47.5948 25.9835 47.0752 25.8428 46.2729 25.8022H28.5813C27.8548 25.8292 27.3826 25.9672 27.1539 26.1634C26.9781 26.3136 26.8455 26.7276 26.8441 27.4433L26.8401 43.3679C26.9077 44.0634 27.0606 44.5274 27.2568 44.7588C27.4056 44.9347 27.867 45.1106 28.5462 45.1972H46.2919C47.1226 45.2134 47.6124 45.0889 47.7774 44.9225C47.9601 44.7372 48.0927 44.2501 48.0927 43.4532V40.6863C48.0927 40.1898 48.5054 39.7852 49.0154 39.7852C49.5241 39.7852 49.9368 40.1898 49.9368 40.6863V43.4532C49.9368 44.6709 49.6879 45.5814 49.1047 46.1727C48.504 46.7815 47.5488 47.025 46.2729 46.998L28.4366 46.9939C27.2229 46.8532 26.353 46.5204 25.8348 45.9075C25.3653 45.3528 25.1042 44.5613 25 43.4545V27.442C25.0027 26.2568 25.2868 25.3652 25.939 24.8077C26.537 24.2936 27.4002 24.0433 28.5462 24L46.3176 24.0014ZM49.8056 31.7188C51.0503 31.7188 52.0596 32.7051 52.0596 33.9214V36.9142C52.0596 38.1305 51.0503 39.1169 49.8056 39.1169H40.7906C39.5459 39.1169 38.5366 38.1292 38.5366 36.9142V33.9214C38.5366 32.7051 39.5459 31.7188 40.7906 31.7188H49.8056ZM43.0447 34.3435C42.4223 34.3435 41.9177 34.8306 41.9177 35.43C41.9177 36.0294 42.4223 36.5164 43.0447 36.5164C43.6671 36.5164 44.1718 36.0294 44.1718 35.43C44.1718 34.8306 43.6671 34.3422 43.0447 34.3422" fill="white"/>
</g>
<defs>
<filter id="filter0_d_132_820" x="0" y="0" width="78" height="78" filterUnits="userSpaceOnUse" color-interpolation-filters="sRGB">
<feFlood flood-opacity="0" result="BackgroundImageFix"/>
<feColorMatrix in="SourceAlpha" type="matrix" values="0 0 0 0 0 0 0 0 0 0 0 0 0 0 0 0 0 0 127 0" result="hardAlpha"/>
<feOffset dy="4"/>
<feGaussianBlur stdDeviation="4.5"/>
<feComposite in2="hardAlpha" operator="out"/>
<feColorMatrix type="matrix" values="0 0 0 0 0 0 0 0 0 0 0 0 0 0 0 0 0 0 0.05 0"/>
<feBlend mode="normal" in2="BackgroundImageFix" result="effect1_dropShadow_132_820"/>
<feBlend mode="normal" in="SourceGraphic" in2="effect1_dropShadow_132_820" result="shape"/>
</filter>
</defs>
</svg>
