<svg width="78" height="78" viewBox="0 0 78 78" fill="none" xmlns="http://www.w3.org/2000/svg">
<g filter="url(#filter0_d_132_811)">
<rect x="9" y="5" width="60" height="60" rx="16" fill="#1F3F66" shape-rendering="crispEdges"/>
<rect x="9.15" y="5.15" width="59.7" height="59.7" rx="15.85" stroke="#A6A6A6" stroke-width="0.3" shape-rendering="crispEdges"/>
<path d="M49.1111 22H28.8889C27.3 22 26 23.3 26 24.8889V45.1111C26 46.7 27.3 48 28.8889 48H49.1111C50.7 48 52 46.7 52 45.1111V24.8889C52 23.3 50.7 22 49.1111 22ZM34.6667 42.2222H31.7778V32.1111H34.6667V42.2222ZM40.4444 42.2222H37.5556V27.7778H40.4444V42.2222ZM46.2222 42.2222H43.3333V36.4444H46.2222V42.2222Z" fill="white"/>
</g>
<defs>
<filter id="filter0_d_132_811" x="0" y="0" width="78" height="78" filterUnits="userSpaceOnUse" color-interpolation-filters="sRGB">
<feFlood flood-opacity="0" result="BackgroundImageFix"/>
<feColorMatrix in="SourceAlpha" type="matrix" values="0 0 0 0 0 0 0 0 0 0 0 0 0 0 0 0 0 0 127 0" result="hardAlpha"/>
<feOffset dy="4"/>
<feGaussianBlur stdDeviation="4.5"/>
<feComposite in2="hardAlpha" operator="out"/>
<feColorMatrix type="matrix" values="0 0 0 0 0 0 0 0 0 0 0 0 0 0 0 0 0 0 0.05 0"/>
<feBlend mode="normal" in2="BackgroundImageFix" result="effect1_dropShadow_132_811"/>
<feBlend mode="normal" in="SourceGraphic" in2="effect1_dropShadow_132_811" result="shape"/>
</filter>
</defs>
</svg>
