<svg width="78" height="78" viewBox="0 0 78 78" fill="none" xmlns="http://www.w3.org/2000/svg">
<g filter="url(#filter0_d_132_177)">
<rect x="9" y="5" width="60" height="60" rx="16" fill="#1F3F66" shape-rendering="crispEdges"/>
<rect x="9.15" y="5.15" width="59.7" height="59.7" rx="15.85" stroke="#A6A6A6" stroke-width="0.3" shape-rendering="crispEdges"/>
<path d="M52.9201 47.1837L47.443 40.9423C47.9773 39.4199 47.7101 37.4409 46.5078 36.2231C45.3055 34.853 43.5689 34.5486 42.0994 35.3097L44.6376 38.2021L42.7673 40.3333L40.0956 37.2887C39.4276 38.9633 39.6948 40.9423 40.8971 42.4646C42.0994 43.8346 43.7025 44.1391 45.0384 43.5302L50.5155 49.7717C50.7827 50.0761 51.1834 50.0761 51.317 49.7717L52.6529 48.2493C53.0537 47.7927 53.0537 47.336 52.9201 47.1837ZM39.6948 45.357H25V42.3123C25 38.9633 29.8092 36.2231 35.6871 36.2231C36.3551 36.2231 37.023 36.2231 37.5574 36.3753C37.1566 37.2887 37.023 38.2021 37.023 39.2677C37.023 41.7034 38.0917 43.9869 39.6948 45.357ZM35.6871 21C32.7482 21 30.3436 23.7402 30.3436 27.0892C30.3436 30.4383 32.7482 33.1785 35.6871 33.1785C38.6261 33.1785 41.0307 30.4383 41.0307 27.0892C41.0307 23.7402 38.6261 21 35.6871 21Z" fill="white"/>
</g>
<defs>
<filter id="filter0_d_132_177" x="0" y="0" width="78" height="78" filterUnits="userSpaceOnUse" color-interpolation-filters="sRGB">
<feFlood flood-opacity="0" result="BackgroundImageFix"/>
<feColorMatrix in="SourceAlpha" type="matrix" values="0 0 0 0 0 0 0 0 0 0 0 0 0 0 0 0 0 0 127 0" result="hardAlpha"/>
<feOffset dy="4"/>
<feGaussianBlur stdDeviation="4.5"/>
<feComposite in2="hardAlpha" operator="out"/>
<feColorMatrix type="matrix" values="0 0 0 0 0 0 0 0 0 0 0 0 0 0 0 0 0 0 0.05 0"/>
<feBlend mode="normal" in2="BackgroundImageFix" result="effect1_dropShadow_132_177"/>
<feBlend mode="normal" in="SourceGraphic" in2="effect1_dropShadow_132_177" result="shape"/>
</filter>
</defs>
</svg>
