<svg width="70" height="61" viewBox="0 0 70 61" fill="none" xmlns="http://www.w3.org/2000/svg">
<rect x="0.5" y="0.5" width="69" height="60" rx="7.5" stroke="white"/>
<path d="M12 17H16.0909V45.6364H12V17ZM20.1818 17H24.2727V45.6364H20.1818V17ZM54.9545 17H30.4091C29.2841 17 28.3636 17.9205 28.3636 19.0455V43.5909C28.3636 44.7159 29.2841 45.6364 30.4091 45.6364H54.9545C56.0795 45.6364 57 44.7159 57 43.5909V19.0455C57 17.9205 56.0795 17 54.9545 17ZM32.4545 41.5455L37.5682 35.1023L41.2295 39.5L46.3432 32.9136L52.9091 41.5455H32.4545Z" fill="white"/>
</svg>
