<svg width="44" height="44" viewBox="0 0 44 44" fill="none" xmlns="http://www.w3.org/2000/svg">
<rect x="0.25" y="0.25" width="43.5" height="43.5" rx="4.75" stroke="#CE4B55" stroke-width="0.5"/>
<path d="M22 21.35C21.0528 21.35 20.1444 21.0076 19.4746 20.3981C18.8048 19.7886 18.4286 18.962 18.4286 18.1C18.4286 17.238 18.8048 16.4114 19.4746 15.8019C20.1444 15.1924 21.0528 14.85 22 14.85C22.9472 14.85 23.8556 15.1924 24.5254 15.8019C25.1952 16.4114 25.5714 17.238 25.5714 18.1C25.5714 18.5268 25.4791 18.9494 25.2996 19.3437C25.1201 19.738 24.857 20.0963 24.5254 20.3981C24.1937 20.6999 23.8 20.9393 23.3667 21.1026C22.9334 21.2659 22.469 21.35 22 21.35ZM22 9C19.3478 9 16.8043 9.95875 14.9289 11.6653C13.0536 13.3719 12 15.6865 12 18.1C12 24.925 22 35 22 35C22 35 32 24.925 32 18.1C32 15.6865 30.9464 13.3719 29.0711 11.6653C27.1957 9.95875 24.6522 9 22 9Z" fill="#1F3F66"/>
</svg>
