<svg width="44" height="44" viewBox="0 0 44 44" fill="none" xmlns="http://www.w3.org/2000/svg">
<path d="M0.643743 12.567C0.231555 12.1549 1.17483e-06 11.5961 1.17483e-06 11.0135C1.17483e-06 10.4309 0.231555 9.87206 0.643743 9.46001L9.43843 0.67081C9.85311 0.270554 10.4085 0.0490784 10.985 0.0540847C11.5615 0.0590911 12.1129 0.290179 12.5206 0.697576C12.9282 1.10497 13.1595 1.65608 13.1645 2.23221C13.1695 2.80833 12.9479 3.36338 12.5474 3.77779L3.75267 12.567C3.34035 12.9789 2.78121 13.2103 2.1982 13.2103C1.61519 13.2103 1.05605 12.9789 0.643743 12.567ZM39.1205 30.3344L30.3258 39.1236C30.1158 39.3263 29.9483 39.5687 29.8331 39.8368C29.7179 40.1049 29.6572 40.3932 29.6547 40.685C29.6521 40.9767 29.7078 41.2661 29.8183 41.5361C29.9289 41.8061 30.0921 42.0515 30.2986 42.2578C30.505 42.4641 30.7505 42.6272 31.0207 42.7377C31.2909 42.8482 31.5804 42.9038 31.8724 42.9013C32.1643 42.8987 32.4528 42.8381 32.7211 42.723C32.9893 42.6078 33.2319 42.4404 33.4347 42.2305L42.2294 33.4413C42.6299 33.0269 42.8516 32.4719 42.8465 31.8958C42.8415 31.3196 42.6103 30.7685 42.2027 30.3611C41.795 29.9537 41.2435 29.7226 40.6671 29.7176C40.0906 29.7126 39.5352 29.9341 39.1205 30.3344ZM43.3288 16.0519C42.9165 15.64 42.3573 15.4086 41.7743 15.4086C41.1913 15.4086 40.6322 15.64 40.2198 16.0519L16.0345 40.2222C15.8245 40.4249 15.657 40.6674 15.5417 40.9354C15.4265 41.2035 15.3658 41.4919 15.3633 41.7836C15.3608 42.0754 15.4164 42.3647 15.5269 42.6347C15.6375 42.9048 15.8008 43.1501 16.0072 43.3564C16.2136 43.5627 16.4591 43.7259 16.7293 43.8364C16.9995 43.9469 17.2891 44.0025 17.581 43.9999C17.8729 43.9974 18.1614 43.9368 18.4297 43.8216C18.6979 43.7065 18.9406 43.5391 19.1434 43.3292L43.3288 19.1589C43.741 18.7468 43.9725 18.188 43.9725 17.6054C43.9725 17.0228 43.741 16.464 43.3288 16.0519ZM2.1982 28.5919C2.78128 28.5918 3.34043 28.3602 3.75267 27.9481L27.9381 3.77779C28.1481 3.5751 28.3156 3.33264 28.4308 3.06456C28.546 2.79648 28.6067 2.50815 28.6092 2.21639C28.6117 1.92464 28.5561 1.6353 28.4456 1.36526C28.335 1.09522 28.1718 0.849885 27.9653 0.643574C27.7589 0.437264 27.5134 0.274108 27.2432 0.163625C26.973 0.0531432 26.6835 -0.00245232 26.3915 8.29628e-05C26.0996 0.00261824 25.8111 0.0632336 25.5428 0.178392C25.2746 0.29355 25.032 0.460945 24.8291 0.67081L0.643743 24.8411C0.336347 25.1484 0.12702 25.5399 0.0422222 25.9661C-0.0425753 26.3922 0.000965109 26.834 0.167339 27.2354C0.333712 27.6369 0.615449 27.98 0.976933 28.2214C1.33842 28.4629 1.76342 28.5918 2.1982 28.5919ZM2.1982 43.973C2.78128 43.9729 3.34043 43.7413 3.75267 43.3292L43.3288 3.77779C43.5388 3.5751 43.7063 3.33264 43.8215 3.06456C43.9367 2.79648 43.9974 2.50815 43.9999 2.21639C44.0025 1.92464 43.9468 1.6353 43.8363 1.36526C43.7257 1.09522 43.5625 0.849885 43.356 0.643574C43.1496 0.437264 42.9041 0.274108 42.6339 0.163625C42.3637 0.0531432 42.0742 -0.00245232 41.7822 8.29628e-05C41.4903 0.00261824 41.2018 0.0632336 40.9335 0.178392C40.6653 0.29355 40.4227 0.460945 40.2198 0.67081L0.643743 40.2222C0.336347 40.5295 0.12702 40.921 0.0422222 41.3472C-0.0425753 41.7733 0.000965109 42.2151 0.167339 42.6165C0.333712 43.018 0.615449 43.3611 0.976933 43.6025C1.33842 43.844 1.76342 43.9729 2.1982 43.973Z" fill="url(#paint0_linear_2_47951)"/>
<defs>
<linearGradient id="paint0_linear_2_47951" x1="22" y1="0" x2="22" y2="44" gradientUnits="userSpaceOnUse">
<stop stop-color="#1F3F66"/>
<stop offset="1" stop-color="#CE4B55"/>
</linearGradient>
</defs>
</svg>
