<svg width="44" height="44" viewBox="0 0 44 44" fill="none" xmlns="http://www.w3.org/2000/svg">
<rect x="0.25" y="0.25" width="43.5" height="43.5" rx="4.75" stroke="#CE4B55" stroke-width="0.5"/>
<path d="M10.5 14.7324C10.5 12.8756 12.5447 11.8661 13.9492 12.9463L15.6045 14.2207L22.6953 19.6729L23 19.9072L23.3047 19.6729L30.3955 14.2188L32.0508 12.9473V12.9463C33.4545 11.867 35.5 12.8759 35.5 14.7324V30.1816C35.5 30.9215 34.919 31.499 34.2275 31.499H30.5908V20.6846L29.7852 21.3037L23 26.5225L16.2148 21.3037L15.4092 20.6846V31.5H11.7725C11.6071 31.5 11.4426 31.4666 11.2891 31.4014C11.1356 31.3361 10.9956 31.2399 10.877 31.1182C10.7582 30.9964 10.6635 30.8512 10.5986 30.6904C10.5337 30.5296 10.4999 30.3564 10.5 30.1816V14.7324Z" fill="#1F3F66" stroke="#1F3F66"/>
</svg>
