<svg width="44" height="44" viewBox="0 0 44 44" fill="none" xmlns="http://www.w3.org/2000/svg">
<rect x="0.25" y="0.25" width="43.5" height="43.5" rx="4.75" stroke="#CE4B55" stroke-width="0.5"/>
<path d="M15.036 10.0713C15.6115 10.0713 17.9137 15.2511 17.9137 15.8267C17.9137 16.9778 16.1871 18.1288 15.6115 19.2799C15.036 20.431 16.1871 21.5821 17.3381 22.7332C17.7871 23.1821 19.6403 25.0353 20.7914 24.4598C21.9424 23.8842 23.0935 22.1576 24.2446 22.1576C24.8201 22.1576 30 24.4598 30 25.0353C30 27.3375 28.2734 29.0641 26.5468 29.6396C24.8201 30.2152 23.6691 30.2152 21.3669 29.6396C19.0647 29.0641 17.3381 28.4886 14.4604 25.6109C11.5827 22.7332 11.0072 21.0065 10.4317 18.7044C9.85612 16.4022 9.85612 15.2511 10.4317 13.5245C11.0072 11.7979 12.7338 10.0713 15.036 10.0713Z" fill="#1F3F66" stroke="#1F3F66" stroke-width="2" stroke-linecap="round" stroke-linejoin="round"/>
</svg>
