<svg width="39" height="36" viewBox="0 0 39 36" fill="none" xmlns="http://www.w3.org/2000/svg">
<g clip-path="url(#clip0_101_2680)">
<path fill-rule="evenodd" clip-rule="evenodd" d="M26.8764 12.3679C25.6872 12.8436 24.4979 12.249 24.0222 11.1787C23.5466 10.1084 24.1412 8.80023 25.2115 8.32454C26.2818 7.84885 27.5899 8.44346 28.0656 9.51376C28.5413 10.5841 27.9467 11.8922 26.8764 12.3679ZM19.86 20.3357C18.7897 20.8114 17.4815 20.2167 17.0058 19.1464C16.5302 18.0761 17.1248 16.768 18.1951 16.2923C19.2654 15.8166 20.5735 16.4112 21.0492 17.4815C21.5249 18.5518 20.9303 19.86 19.86 20.3357ZM32.7036 15.9355C31.5143 16.4112 30.3251 15.8166 29.8494 14.7463C29.3737 13.676 29.9683 12.3679 31.0386 11.8922C32.1089 11.4165 33.4171 12.0111 33.8928 13.0814C34.3685 14.1517 33.8928 15.4599 32.7036 15.9355ZM36.628 21.6438C35.4388 22.1195 34.2495 21.5249 33.7739 20.4546C33.2982 19.3843 33.8928 18.0761 34.9631 17.6005C36.0334 17.1248 37.3415 17.7194 37.8172 18.7897C38.2929 19.86 37.6983 21.1681 36.628 21.6438ZM20.2167 5.58933L22.9519 7.0164V2.97305L20.2167 3.8055L19.9789 3.56766L21.0492 0H17.0058L18.0761 3.56766L17.8383 3.8055C17.7194 3.92443 15.1031 2.97305 15.1031 2.97305V7.0164L17.8383 5.58933C17.9572 5.70826 17.9572 5.82718 18.0761 5.82718L16.5302 10.5841C16.4112 10.8219 16.4112 11.0597 16.4112 11.2976C16.4112 12.6057 17.3626 13.676 18.6708 13.9139H19.5032C20.6924 13.676 21.7627 12.6057 21.7627 11.4165C21.7627 11.1787 21.7627 10.9408 21.6438 10.703L20.0978 5.9461C19.9789 5.70826 20.0978 5.70826 20.2167 5.58933ZM11.1787 12.3679C12.249 12.8436 13.5571 12.249 14.0328 11.1787C14.5085 10.1084 13.9139 8.80023 12.8436 8.32454C11.7733 7.84885 10.4651 8.44346 9.98945 9.51376C9.51376 10.5841 9.98945 11.8922 11.1787 12.3679ZM5.23257 15.9355C6.30287 16.4112 7.61101 15.8166 8.0867 14.7463C8.56239 13.676 7.96778 12.3679 6.89748 11.8922C5.82718 11.4165 4.51904 12.0111 4.04335 13.0814C3.56766 14.1517 4.16227 15.4599 5.23257 15.9355ZM1.42706 21.6438C2.49736 22.1195 3.8055 21.5249 4.28119 20.4546C4.75688 19.3843 4.16227 18.0761 3.09197 17.6005C2.02167 17.1248 0.713532 17.7194 0.237844 18.7897C-0.237844 19.86 0.237844 21.1681 1.42706 21.6438ZM19.0275 34.7252C24.2601 34.7252 29.2548 35.082 33.6549 35.6766C34.9631 30.3251 36.5091 27.3521 38.055 25.2115L35.082 24.1412C35.3198 25.6872 35.4388 26.4007 35.082 27.3521C34.6063 26.8764 34.1306 26.0439 33.7739 24.6169L32.3468 29.3737C33.1792 28.7791 33.8928 28.4224 34.7252 28.3034C33.4171 31.2765 31.6333 31.99 30.563 31.8711C29.2548 31.6333 28.5413 30.444 28.7791 29.3737C29.1359 27.9467 30.563 27.5899 31.2765 29.2548C32.5846 26.5196 30.3251 25.6872 28.8981 26.5196C31.1576 24.2601 31.3954 22.3573 29.6116 19.86C27.1142 21.7627 27.1142 23.6655 28.1845 26.4007C26.7575 24.7358 24.379 25.6872 25.2115 28.3034C26.2818 26.6385 27.7088 27.7088 27.471 29.2548C27.2331 30.563 25.4493 31.7522 23.3087 31.5143C20.0978 31.2765 19.86 29.017 19.86 27.2331C20.6924 27.1142 22.1195 27.8278 23.3087 29.4927L23.7844 24.379C22.4763 25.6872 21.287 26.0439 19.9789 26.0439C20.4546 24.6169 22.4763 22.4763 22.4763 22.4763H16.0545C16.0545 22.4763 18.0761 24.7358 18.5518 26.0439C17.2437 26.0439 16.0545 25.8061 14.7463 24.379L15.222 29.4927C16.4112 27.8278 17.8383 27.1142 18.6708 27.2331C18.5518 29.017 18.4329 31.2765 15.222 31.5143C12.9625 31.7522 11.1787 30.563 11.0597 29.2548C10.8219 27.7088 12.249 26.6385 13.3193 28.3034C14.1517 25.5682 11.8922 24.7358 10.3462 26.4007C11.4165 23.7844 11.4165 21.7627 8.91915 19.86C7.13532 22.2384 7.37317 24.2601 9.63268 26.5196C8.20562 25.6872 5.9461 26.5196 7.25424 29.2548C7.96777 27.5899 9.39484 27.9467 9.75161 29.3737C9.98945 30.444 9.39484 31.6333 7.96777 31.8711C6.89748 32.1089 5.11365 31.2765 3.8055 28.3034C4.51904 28.3034 5.23257 28.6602 6.18394 29.3737L4.75688 24.6169C4.40011 25.925 3.92443 26.8764 3.44874 27.3521C3.09197 26.4007 3.21089 25.6872 3.44874 24.1412L0 25.2115C1.54599 27.3521 3.09197 30.3251 4.40011 35.6766C8.80023 35.082 13.795 34.7252 19.0275 34.7252Z" fill="black"/>
</g>
<defs>
<clipPath id="clip0_101_2680">
<rect width="38.055" height="35.6766" fill="white"/>
</clipPath>
</defs>
</svg>
