<svg width="141" height="357" viewBox="0 0 141 357" fill="none" xmlns="http://www.w3.org/2000/svg">
<g filter="url(#filter0_d_2_47568)">
<path d="M64.5007 56.632C64.5007 56.632 56.5007 55.4258 51.8307 58.9041C49.7482 60.4275 48.0229 62.3349 46.762 64.508C45.501 66.681 44.7313 69.0733 44.5007 71.5361C43.9107 76.3234 40.2107 94.8367 40.2107 94.8367L32.9707 85.6829L24.9707 92.228C24.9707 92.228 31.7107 122.429 38.0307 124.458C44.3507 126.487 51.2307 119.858 52.8607 118.661C54.4907 117.464 64.5007 56.632 64.5007 56.632Z" fill="#CE4B55"/>
<path d="M61.7607 56.4355C61.7607 56.4355 51.2407 70.4608 50.0207 74.0419C48.8007 77.623 39.9407 84.1027 40.1007 92.5926C40.1789 96.4645 40.5498 100.326 41.2107 104.149C41.5977 106.32 41.5536 108.539 41.0807 110.694L36.9707 129.208C37.9887 130.596 39.3247 131.754 40.8815 132.598C42.4384 133.442 44.1769 133.951 45.9707 134.089C52.4107 134.743 68.8307 138.362 79.7307 134.089L87.5707 130.507V101.868L92.9607 90.1522L108.321 66.8797C108.321 66.8797 100.481 61.8025 93.1607 59.6146C85.5507 57.3051 73.1107 57.0994 61.7607 56.4355Z" fill="#CE4B55"/>
<path d="M37.8203 125.515C37.8304 125.297 37.8639 125.081 37.9203 124.87L38.2803 123C38.6203 121.354 39.1003 119.063 39.6903 116.249C39.9503 114.818 40.4503 113.294 40.6903 111.574C40.7603 111.153 40.8303 110.732 40.9003 110.293C40.9703 109.853 40.9803 109.414 41.0303 108.965C41.1105 108.032 41.1338 107.095 41.1003 106.16C40.997 104.17 40.6412 102.199 40.0403 100.288C39.2788 98.2269 38.8802 96.0638 38.8603 93.8831C39.0288 91.7026 39.6148 89.5681 40.5903 87.5812C41.4448 85.7333 42.4476 83.9485 43.5903 82.2422C45.7703 78.9697 47.9603 76.1833 49.7703 73.8271L54.0703 68.217L55.2403 66.7022C55.3649 66.5153 55.5125 66.3427 55.6803 66.188C55.5788 66.3848 55.4583 66.5726 55.3203 66.749C55.0503 67.151 54.6803 67.684 54.2303 68.3198C53.2303 69.6662 51.8403 71.6017 50.0503 73.9299C48.2603 76.2581 46.1103 79.1099 43.9703 82.3451C42.8371 84.0435 41.8346 85.8151 40.9703 87.6466C40.0312 89.5864 39.4658 91.666 39.3003 93.7897C39.3204 95.9252 39.7087 98.0437 40.4503 100.064C41.0385 102.011 41.3742 104.016 41.4503 106.038C41.472 106.974 41.4387 107.911 41.3503 108.843C41.3503 109.292 41.2603 109.778 41.2203 110.19C41.1803 110.601 41.0603 111.05 40.9903 111.48C40.7203 113.173 40.2003 114.697 39.9203 116.155C39.2703 118.96 38.7303 121.232 38.3503 122.869C38.1603 123.626 38.0103 124.224 37.9003 124.692C37.9087 124.968 37.8818 125.244 37.8203 125.515Z" fill="#263238"/>
<path d="M103.26 63.9062C103.26 63.9062 122.41 70.3111 115.14 92.6393C109.35 110.405 97.4597 131.639 89.9297 132.06C86.0197 132.275 81.7597 132.144 79.1097 130.189C68.3397 122.251 61.7598 100.989 61.7598 100.989L72.0497 90.2269L84.5398 107.525C85.9398 106.954 94.2498 83.018 94.2498 83.018C94.2498 83.018 100.25 64.6543 103.26 63.9062Z" fill="#CE4B55"/>
<path d="M94.1601 85.0098C94.1265 85.1566 94.0796 85.3004 94.0201 85.4399L93.5701 86.6741L91.7701 91.3492C90.1801 95.3604 87.9301 101.027 85.2401 107.787L85.0901 108.17L84.8401 107.833C81.1601 102.738 76.8401 96.8377 72.3301 90.5544H72.73L71.4701 91.7606L61.9701 100.84L62.0301 100.606C63.4186 104.954 65.0883 109.219 67.0301 113.378C68.5739 116.666 70.4314 119.817 72.5801 122.794C73.9986 124.743 75.5625 126.595 77.2601 128.338L78.67 129.703C78.8412 129.853 78.9985 130.015 79.1401 130.19C78.9527 130.058 78.7755 129.915 78.61 129.76L77.1401 128.451C75.3824 126.742 73.7708 124.907 72.3201 122.962C70.1172 119.996 68.2156 116.844 66.6401 113.546C64.6699 109.382 62.9799 105.107 61.5801 100.746V100.606L61.6901 100.512C64.6901 97.7073 67.8601 94.5937 71.1801 91.424L72.4401 90.2084L72.67 89.9934L72.8401 90.2458C77.3801 96.5385 81.63 102.457 85.3 107.553L84.9001 107.6C87.6501 100.858 89.9601 95.2201 91.6001 91.2183C92.4101 89.2734 93.0601 87.7307 93.5101 86.6367C93.7301 86.1318 93.9001 85.7017 94.0401 85.4305C94.0684 85.2876 94.1085 85.1469 94.1601 85.0098Z" fill="#263238"/>
<path d="M47.5706 319.493L48.8506 337.688C48.8506 337.688 29.5006 345.009 29.3906 348.394L67.2006 347.347L66.4606 318.922L47.5706 319.493Z" fill="#CE4B55"/>
<path d="M60.4891 335.837C60.8577 335.928 61.1769 336.144 61.384 336.443C61.5912 336.742 61.6715 337.103 61.6091 337.455C61.525 337.8 61.3012 338.103 60.9844 338.298C60.6675 338.493 60.2823 338.566 59.9091 338.502C59.5195 338.403 59.183 338.172 58.965 337.854C58.747 337.536 58.6629 337.154 58.7291 336.781C58.8554 336.424 59.1253 336.127 59.4818 335.952C59.8382 335.778 60.2532 335.74 60.6391 335.846" fill="#E0E0E0"/>
<path d="M67.2591 348.619L67.179 345.355L30.819 346.58C30.819 346.58 29.1591 347.31 29.3891 348.45L67.2591 348.619Z" fill="#263238"/>
<path d="M48.2296 337.529C48.2296 337.697 49.1696 337.753 50.0896 338.277C51.0096 338.801 51.5296 339.521 51.6996 339.446C51.8696 339.371 51.5596 338.389 50.4196 337.763C49.2796 337.136 48.1896 337.398 48.2296 337.529Z" fill="#263238"/>
<path d="M44.3105 339.165C44.3105 339.334 45.0905 339.605 45.7405 340.325C46.3905 341.045 46.5905 341.802 46.7405 341.793C46.8905 341.784 47.0105 340.802 46.1805 339.923C45.3505 339.044 44.3105 339.007 44.3105 339.165Z" fill="#263238"/>
<path d="M42.2005 343.672C42.3705 343.672 42.6005 342.831 42.1005 341.896C41.6005 340.961 40.7205 340.615 40.6405 340.765C40.5605 340.914 41.1205 341.4 41.5205 342.167C41.9205 342.934 42.0205 343.654 42.2005 343.672Z" fill="#263238"/>
<path d="M48.4299 333.35C48.5099 333.508 49.3499 333.247 50.4299 333.284C51.5099 333.322 52.2999 333.602 52.4299 333.452C52.5599 333.303 51.7199 332.705 50.4899 332.677C49.2599 332.649 48.3399 333.219 48.4299 333.35Z" fill="#263238"/>
<path d="M82.4109 319.848L83.5209 338.053C83.5209 338.053 64.1109 345.215 63.9609 348.618L101.791 347.87L101.301 319.446L82.4109 319.848Z" fill="#CE4B55"/>
<path d="M95.1793 336.286C95.5457 336.382 95.8613 336.601 96.066 336.902C96.2707 337.202 96.3503 337.562 96.2894 337.913C96.2009 338.26 95.9727 338.561 95.6522 338.755C95.3318 338.948 94.9438 339.018 94.5693 338.951C94.1814 338.848 93.848 338.614 93.6338 338.294C93.4195 337.975 93.3396 337.592 93.4094 337.221C93.5435 336.869 93.8188 336.579 94.1771 336.414C94.5354 336.248 94.9486 336.219 95.3293 336.333" fill="#E0E0E0"/>
<path d="M101.831 348.619V345.813L65.4607 346.748C65.4607 346.748 63.7907 347.468 64.0007 348.619H101.831Z" fill="#263238"/>
<path d="M82.9098 337.885C82.9098 338.053 83.8398 338.119 84.7598 338.652C85.6798 339.184 86.1798 339.904 86.3498 339.839C86.5198 339.774 86.2198 338.773 85.0998 338.137C83.9798 337.501 82.8598 337.726 82.9098 337.885Z" fill="#263238"/>
<path d="M78.9707 339.493C78.9707 339.661 79.7407 339.941 80.3907 340.661C81.0407 341.381 81.2307 342.148 81.3907 342.139C81.5507 342.129 81.6707 341.148 80.8507 340.269C80.0307 339.39 78.9707 339.334 78.9707 339.493Z" fill="#263238"/>
<path d="M76.8193 343.943C76.9893 343.943 77.2293 343.102 76.7293 342.167C76.2293 341.232 75.3594 340.877 75.2894 341.017C75.2194 341.157 75.7594 341.662 76.1494 342.438C76.5394 343.214 76.6393 343.943 76.8193 343.943Z" fill="#263238"/>
<path d="M83.1499 333.705C83.2299 333.864 84.0699 333.611 85.1499 333.658C86.2299 333.705 87.0199 333.994 87.1499 333.845C87.2799 333.695 86.4499 333.088 85.2199 333.051C83.9899 333.013 83.0499 333.574 83.1499 333.705Z" fill="#263238"/>
<path d="M88.1904 129.89C88.1904 129.89 97.8204 139.343 102.88 150.975C107.94 162.606 105.76 218.651 105.76 218.651L104.7 248.02C104.7 248.02 106.23 273.265 105.06 291.264C103.89 309.264 102.58 329.207 102.58 329.207L81.5804 330.142L59.2504 177.511L64.8204 247.898C68.3704 265.851 67.9504 297.52 67.2604 330.114H45.0204C45.0204 330.114 37.3604 281.391 35.6104 269.815C33.6104 256.725 27.8104 220.764 27.8104 220.764C27.8104 220.764 23.3304 186.337 24.8904 167.796C26.4504 149.254 38.2604 123.326 38.6504 122.232L86.1504 130.227" fill="#263238"/>
<path d="M90.6104 124.954L96.1804 138.82C96.1804 138.82 137.6 192.836 136.39 197.343C135.18 201.849 112.62 219.287 106 216.473C99.3804 213.659 82.2304 202.12 76.5104 190.601C70.7904 179.082 54.5104 146.711 54.5104 146.711L49.4004 137.707L55.1104 134.051L90.6104 124.954Z" fill="#455A64"/>
<path d="M38.28 123.027C43.28 125.543 42.76 133.415 47.78 135.931C39.4 146.898 36.54 160.699 35.4 174.126C34.26 187.553 34.61 201.157 31.73 214.332L21.34 213.649C19.5818 187.68 22.5781 161.621 30.2 136.594C31.7301 131.547 34.4965 126.902 38.28 123.027Z" fill="#455A64"/>
<path d="M78.7598 145.72C79.6522 145.622 80.5306 145.434 81.3798 145.159C83.4504 144.58 85.4838 143.89 87.4698 143.093C89.4604 142.297 91.3973 141.388 93.2698 140.372C94.0681 139.988 94.8192 139.524 95.5098 138.988C94.6752 139.286 93.869 139.649 93.0998 140.073C91.6298 140.784 89.5798 141.719 87.2698 142.654C84.9598 143.589 82.8198 144.318 81.2698 144.832C80.4098 145.067 79.5706 145.364 78.7598 145.72Z" fill="#263238"/>
<g opacity="0.2">
<path d="M105.64 186.861L106.64 186.926C103.137 190.183 98.6628 192.373 93.8044 193.207C88.946 194.042 83.9312 193.482 79.4196 191.601C76.4196 190.264 73.4196 187.805 73.4996 184.673C83.8114 188.074 94.9097 188.83 105.64 186.861Z" fill="black"/>
</g>
<path d="M53.9294 137.726C57.7994 137.062 65.2294 138.96 67.9294 141.616C70.6294 144.271 72.2794 147.731 73.6194 151.19C76.5294 158.67 78.6195 166.992 84.8995 172.368C90.8295 177.427 99.2595 178.773 107.189 179.914C107.399 182.654 107.369 185.917 104.959 187.488C104.226 187.924 103.417 188.241 102.569 188.423C100.211 189.027 97.797 189.425 95.3594 189.61C84.0694 190.48 72.1094 186.235 65.4794 177.642C57.0994 166.777 56.4795 153.715 51.6895 141.073" fill="#455A64"/>
<path d="M51.7598 141.045C51.7862 141.183 51.8264 141.317 51.8798 141.447L52.2598 142.597C52.6098 143.607 53.0798 145.113 53.6398 147.067C54.1998 149.021 54.8398 151.415 55.5598 154.201C56.2798 156.987 57.0997 160.176 58.2397 163.635C59.4334 167.435 61.091 171.093 63.1797 174.538C64.3425 176.461 65.7167 178.266 67.2798 179.923C68.9539 181.672 70.8591 183.215 72.9498 184.514C77.4638 187.276 82.5956 189.032 87.9498 189.647C90.777 189.98 93.6357 190.008 96.4698 189.732C97.9183 189.584 99.3572 189.362 100.78 189.068C101.493 188.918 102.203 188.75 102.91 188.563C103.647 188.385 104.354 188.111 105.01 187.749C105.688 187.331 106.244 186.763 106.63 186.094C106.996 185.448 107.246 184.75 107.37 184.028C107.595 182.654 107.632 181.259 107.48 179.876V179.68H107.28C101.97 178.923 96.7898 178.1 92.1598 176.286C89.8937 175.428 87.7771 174.259 85.8798 172.817C84.0891 171.413 82.535 169.764 81.2698 167.927C79.0325 164.478 77.2496 160.789 75.9598 156.941C74.8191 153.581 73.4838 150.282 71.9598 147.057C71.2579 145.669 70.4139 144.348 69.4398 143.112C68.9836 142.547 68.4892 142.009 67.9598 141.503C67.4481 141.039 66.8811 140.631 66.2698 140.288C64.2495 139.194 62.0499 138.42 59.7598 137.997C58.3294 137.696 56.8658 137.555 55.3998 137.576C54.891 137.583 54.3846 137.643 53.8898 137.754C53.8898 137.754 54.3998 137.679 55.3998 137.67C56.8549 137.686 58.3036 137.852 59.7198 138.165C61.9763 138.62 64.1403 139.409 66.1298 140.503C66.7193 140.844 67.266 141.245 67.7598 141.7C68.2719 142.201 68.7495 142.732 69.1898 143.289C70.1426 144.515 70.9664 145.824 71.6498 147.198C73.1345 150.417 74.4297 153.71 75.5298 157.062C76.8172 160.951 78.607 164.678 80.8597 168.161C82.1446 170.04 83.7258 171.726 85.5497 173.163C87.477 174.638 89.6313 175.833 91.9398 176.707C96.6398 178.577 101.86 179.39 107.17 180.157L106.95 179.933C107.091 181.278 107.058 182.634 106.85 183.972C106.767 184.646 106.533 185.296 106.165 185.881C105.796 186.466 105.3 186.972 104.71 187.366C103.428 187.974 102.056 188.399 100.64 188.628C99.2362 188.915 97.8176 189.134 96.3898 189.283C93.5959 189.557 90.7775 189.532 87.9897 189.208C82.7014 188.608 77.6293 186.888 73.1598 184.178C71.1011 182.901 69.2229 181.387 67.5698 179.671C66.0179 178.039 64.6538 176.259 63.4998 174.36C61.396 170.951 59.7183 167.327 58.4998 163.56C57.3398 160.12 56.4998 156.95 55.7498 154.21C54.9998 151.471 54.3498 149.021 53.7498 147.085C53.1498 145.15 52.6498 143.635 52.2698 142.635C52.0898 142.149 51.9398 141.775 51.8398 141.494C51.8322 141.342 51.8053 141.191 51.7598 141.045Z" fill="#263238"/>
<path d="M98.371 189.105C97.6966 187.397 97.4504 185.567 97.6516 183.757C97.8527 181.946 98.4957 180.202 99.531 178.661C99.0675 179.004 98.6946 179.442 98.441 179.942C97.7304 181.089 97.2873 182.363 97.141 183.682C96.9934 185.008 97.1433 186.349 97.581 187.618C97.7169 188.164 97.9874 188.674 98.371 189.105Z" fill="#263238"/>
<path d="M98.0801 182.363C99.5302 182.697 101.017 182.873 102.51 182.887C103.992 183.043 105.488 183.043 106.97 182.887C104.039 182.389 101.057 182.201 98.0801 182.326V182.363Z" fill="#263238"/>
<path d="M97.25 185.384C98.765 185.657 100.308 185.769 101.85 185.72C103.388 185.827 104.934 185.777 106.46 185.57C104.945 185.296 103.402 185.183 101.86 185.234C100.322 185.128 98.7763 185.178 97.25 185.384Z" fill="#263238"/>
<path d="M44.4094 140.11C37.4794 145.963 34.8894 155.248 35.1394 163.971C35.3894 172.695 38.1394 181.185 40.1394 189.694C42.1394 198.202 43.6894 207.141 41.4494 215.622L50.3394 216.819C53.9529 213.193 56.7 208.89 58.3983 204.196C60.0965 199.501 60.7071 194.523 60.1894 189.591C59.2794 181.447 55.3294 173.929 52.4894 166.216C49.6494 158.502 47.9794 149.741 51.5494 142.26" fill="#455A64"/>
<path d="M51.601 142.195C51.5289 142.313 51.4654 142.435 51.411 142.56L50.9209 143.654C50.3736 145.086 49.9751 146.564 49.7309 148.067C49.3872 150.461 49.3604 152.885 49.651 155.286C50.0447 158.462 50.7749 161.594 51.831 164.636C52.971 168.03 54.511 171.648 56.071 175.566C57.8238 179.702 59.0913 184.003 59.851 188.394C60.5593 193.279 60.126 198.249 58.581 202.962C56.9452 208.051 54.0777 212.719 50.201 216.604L50.431 216.529L46.061 215.94L41.541 215.342L41.751 215.631C42.9964 210.414 43.2201 205.028 42.411 199.736C41.6779 194.836 40.6361 189.982 39.291 185.197C38.091 180.624 36.9509 176.286 36.2309 172.172C35.5151 168.374 35.2235 164.516 35.361 160.662C35.5163 155.06 37.218 149.591 40.301 144.785C41.1607 143.509 42.1449 142.311 43.241 141.204C43.611 140.84 43.911 140.568 44.121 140.363C44.2308 140.275 44.3283 140.174 44.411 140.063L44.091 140.325L43.161 141.139C42.0409 142.227 41.0362 143.413 40.161 144.682C37.0009 149.473 35.2359 154.952 35.041 160.578C34.8717 164.458 35.1432 168.345 35.851 172.172C36.551 176.305 37.681 180.662 38.851 185.262C40.1714 190.034 41.1964 194.873 41.9209 199.755C42.721 205.007 42.4974 210.351 41.261 215.529L41.191 215.79H41.471L46.001 216.389L50.361 216.978H50.501L50.591 216.884C54.516 212.945 57.4177 208.213 59.071 203.055C60.6248 198.277 61.0512 193.239 60.321 188.292C59.5463 183.872 58.2553 179.545 56.471 175.388C54.891 171.471 53.3309 167.861 52.1709 164.486C51.109 161.466 50.3622 158.356 49.941 155.201C49.6336 152.823 49.6336 150.418 49.941 148.039C50.1588 146.54 50.5237 145.063 51.031 143.626L51.471 142.523C51.561 142.336 51.601 142.195 51.601 142.195Z" fill="#263238"/>
<path d="M42.9492 208.899C45.0188 208.787 47.0945 208.818 49.1592 208.993C51.1936 209.334 53.1988 209.812 55.1592 210.423C54.6731 210.06 54.1209 209.781 53.5292 209.601C52.1453 209.066 50.6932 208.702 49.2092 208.516C47.7253 208.338 46.2231 208.338 44.7392 208.516C44.122 208.537 43.5147 208.667 42.9492 208.899Z" fill="#263238"/>
<path d="M48.1309 216.557C48.9683 215.545 49.6671 214.44 50.2109 213.266C50.9103 212.166 51.458 210.988 51.8409 209.759C51.0022 210.767 50.3033 211.87 49.7609 213.041C49.0626 214.145 48.515 215.326 48.1309 216.557Z" fill="#263238"/>
<path d="M43.4805 215.94C44.9167 213.657 46.0454 211.217 46.8405 208.675C45.4151 210.963 44.2871 213.402 43.4805 215.94Z" fill="#263238"/>
<path d="M56.2403 137.361C56.3003 137.361 56.4503 137.174 56.5203 136.8C56.5947 136.306 56.522 135.801 56.3104 135.343C56.0987 134.885 55.7562 134.489 55.3203 134.201C54.9703 133.995 54.7203 133.958 54.6903 134.014C54.6603 134.07 55.4203 134.593 55.8403 135.538C56.0376 136.132 56.1715 136.743 56.2403 137.361Z" fill="#263238"/>
<path d="M44.6806 135.332C45.8806 133.565 48.6806 132.976 50.9406 132.723C52.3079 132.679 53.6435 133.115 54.6839 133.946C55.7242 134.776 56.3938 135.942 56.5606 137.211C56.6434 138.491 56.255 139.759 55.4599 140.803C54.6647 141.848 53.5109 142.606 52.1906 142.952C50.8554 143.246 49.4565 143.152 48.1794 142.685C46.9024 142.217 45.8077 141.397 45.0406 140.334C44.4865 139.615 44.1591 138.766 44.0954 137.881C44.0318 136.997 44.2345 136.114 44.6806 135.332Z" fill="#455A64"/>
<path d="M49.6709 133.705C49.1486 134.026 48.7356 134.48 48.4809 135.014C47.7497 136.268 47.5631 137.737 47.9597 139.116C48.3563 140.495 49.3058 141.678 50.6109 142.419C51.1117 142.765 51.7095 142.966 52.3309 142.999C52.3309 142.924 51.6909 142.737 50.8109 142.139C49.6526 141.383 48.8168 140.268 48.451 138.992C48.0851 137.716 48.2126 136.36 48.8109 135.164C49.2509 134.238 49.7609 133.761 49.6709 133.705Z" fill="#263238"/>
<path d="M45.2402 134.668C45.1902 134.668 44.8502 134.921 44.5202 135.538C44.1154 136.359 43.9564 137.267 44.0602 138.165C44.1452 139.058 44.4912 139.912 45.0602 140.634C45.5202 141.176 45.9202 141.391 45.9602 141.354C46.0002 141.316 45.7102 140.989 45.3602 140.419C44.9155 139.701 44.6331 138.905 44.5302 138.081C44.4451 137.258 44.5439 136.427 44.8202 135.641C45.0802 135.061 45.3102 134.715 45.2402 134.668Z" fill="#263238"/>
<g opacity="0.2">
<path d="M44.5598 140.11C45.4086 141.003 46.4475 141.72 47.6098 142.216C48.7721 142.712 50.0323 142.975 51.3098 142.99C50.9627 143.599 50.465 144.123 49.8579 144.516C49.2509 144.91 48.5521 145.162 47.8198 145.252C47.1585 145.295 46.4976 145.164 45.9108 144.876C45.3241 144.588 44.8344 144.153 44.4964 143.62C44.1584 143.086 43.9854 142.476 43.9966 141.856C44.0078 141.237 44.2027 140.632 44.5598 140.11Z" fill="black"/>
</g>
<g opacity="0.2">
<path d="M76.1998 148.207C77.2166 147.23 78.4995 146.532 79.9099 146.187C85.0599 144.448 90.6199 141.512 95.7699 139.736C91.0699 143.635 85.9799 148.226 80.5899 151.237C79.2899 151.966 77.5899 152.658 76.3499 151.835C75.1099 151.012 75.2798 149.264 76.1998 148.207Z" fill="black"/>
</g>
<g opacity="0.2">
<path d="M33.5306 156.866C34.3406 151.087 37.2006 145.374 42.1906 141.905C39.5006 146.477 36.7906 151.125 35.5906 156.22C34.2806 161.83 35.2406 165.384 35.8406 171.087L35.2606 173.892C33.4481 168.386 32.8594 162.592 33.5306 156.866Z" fill="black"/>
</g>
<path d="M78.9805 152.209C79.265 152.126 79.5347 152.003 79.7805 151.845C80.2805 151.583 80.9805 151.181 81.8305 150.657C84.0522 149.285 86.1766 147.779 88.1905 146.15C90.2074 144.523 92.1113 142.777 93.8905 140.924C94.5705 140.204 95.1005 139.615 95.4505 139.194C95.8005 138.773 95.9805 138.53 95.9505 138.502C95.1287 139.188 94.3507 139.919 93.6205 140.69C92.2105 142.055 90.2005 143.888 87.8605 145.786C85.5205 147.684 83.2805 149.264 81.6305 150.377C80.7085 150.937 79.8236 151.549 78.9805 152.209Z" fill="#263238"/>
<path d="M53.5406 12.3028C52.0406 9.80635 52.9706 6.44965 55.1806 4.47676C57.5218 2.58022 60.5699 1.62573 63.6606 1.82132C66.7294 2.02213 69.7559 2.60382 72.6606 3.55109C73.7615 2.21698 75.2359 1.19392 76.9205 0.595292C78.6052 -0.00333964 80.4341 -0.154164 82.2048 0.159529C83.9755 0.473222 85.6186 1.23918 86.9523 2.37253C88.2859 3.50588 89.2579 4.96236 89.7606 6.58055C90.8098 6.18998 91.9533 6.0748 93.0675 6.24745C94.1816 6.4201 95.2242 6.87402 96.0826 7.56021C96.941 8.24639 97.5827 9.13879 97.9383 10.141C98.2939 11.1433 98.3501 12.2173 98.1006 13.2472L85.1006 19.3622L73.6606 45.5426C71.6913 47.4975 69.0374 48.727 66.181 49.008C63.3247 49.2889 60.4552 48.6027 58.0939 47.0738C55.7327 45.545 54.0362 43.275 53.3126 40.6761C52.589 38.0773 52.8864 35.3219 54.1506 32.9106C53.2278 32.317 52.4139 31.5876 51.7406 30.7507C50.4642 30.2395 49.3088 29.4971 48.3408 28.5663C47.3728 27.6356 46.6114 26.5348 46.1006 25.3276C44.1206 20.1289 47.7606 13.6493 53.5406 12.3028Z" fill="#263238"/>
<path d="M69.67 59.5679C69.7204 58.1157 69.8573 56.6673 70.0801 55.2294C70.0801 55.2294 61.6701 53.2939 60.7701 42.7657C60.3301 37.5296 61.3101 29.077 62.3501 22.1953C63.2901 15.9868 68.3501 8.65631 74.9401 9.79703L95.2901 16.2112C97.2901 16.5572 97.8601 18.2028 97.6601 20.1009L97.7501 21.0359L94.3101 50.7413L93.2401 59.6614C92.6101 65.2715 87.1901 71.0499 81.1201 70.9657C79.5478 70.9827 77.9889 70.6941 76.5422 70.1181C75.0955 69.5421 73.7926 68.6913 72.7161 67.6197C71.6395 66.5481 70.8129 65.279 70.2886 63.8929C69.7642 62.5069 69.5536 61.0341 69.67 59.5679Z" fill="#E4B3A0"/>
<path d="M64.4804 31.6485C64.4468 31.995 64.56 32.34 64.7956 32.6093C65.0313 32.8786 65.3705 33.0506 65.7404 33.0884C65.9208 33.1161 66.1053 33.1096 66.2829 33.0692C66.4604 33.0288 66.6275 32.9554 66.774 32.8533C66.9206 32.7512 67.0436 32.6225 67.1358 32.4749C67.2279 32.3273 67.2873 32.1639 67.3104 31.9944C67.3441 31.6479 67.231 31.3029 66.9953 31.0336C66.7597 30.7643 66.4204 30.5923 66.0504 30.5545C65.8701 30.5267 65.6857 30.5332 65.5081 30.5736C65.3305 30.614 65.1634 30.6875 65.0169 30.7896C64.8703 30.8917 64.7473 31.0204 64.6551 31.1679C64.5629 31.3155 64.5035 31.4789 64.4804 31.6485Z" fill="#263238"/>
<path d="M64.2208 27.7868C64.3808 27.9738 65.5307 27.3099 67.0607 27.4221C68.5907 27.5343 69.6608 28.3571 69.8408 28.1701C70.0208 27.9831 69.7807 27.7774 69.3107 27.4034C68.6845 26.9269 67.9162 26.6428 67.1107 26.5899C66.3128 26.5289 65.5146 26.7056 64.8308 27.0949C64.3308 27.4034 64.1408 27.7026 64.2208 27.7868Z" fill="#263238"/>
<path d="M77.6992 32.4059C77.6655 32.7524 77.7787 33.0974 78.0144 33.3667C78.25 33.636 78.5893 33.808 78.9592 33.8458C79.1394 33.8722 79.3234 33.8647 79.5004 33.8238C79.6774 33.7829 79.8439 33.7093 79.9901 33.6074C80.1364 33.5055 80.2594 33.3774 80.3519 33.2304C80.4445 33.0835 80.5048 32.9208 80.5292 32.7518C80.563 32.4043 80.4501 32.0582 80.2147 31.7874C79.9793 31.5166 79.6399 31.3426 79.2692 31.3025C79.0885 31.2775 78.9042 31.2862 78.7271 31.3282C78.55 31.3703 78.3836 31.4448 78.2376 31.5474C78.0915 31.6501 77.9687 31.7788 77.8763 31.9262C77.7839 32.0735 77.7237 32.2366 77.6992 32.4059Z" fill="#263238"/>
<path d="M78.8991 28.5812C79.0591 28.7682 80.1991 28.095 81.7391 28.2165C83.2791 28.3381 84.3291 29.1516 84.5191 28.9646C84.7091 28.7776 84.4491 28.5718 83.9891 28.1978C83.3575 27.7237 82.5869 27.4401 81.7791 27.3844C80.9812 27.3233 80.183 27.5 79.4991 27.8893C78.9991 28.1978 78.8191 28.4971 78.8991 28.5812Z" fill="#263238"/>
<path d="M72.5598 38.3338C71.771 38.0354 70.9441 37.8342 70.0998 37.7354C69.7098 37.6699 69.3498 37.5671 69.2998 37.3146C69.2978 36.9343 69.4199 36.5625 69.6498 36.2487C70.0998 35.3885 70.5598 34.4815 71.0498 33.5372C72.9898 29.6849 74.4198 26.5058 74.2598 26.431C74.0998 26.3562 72.3798 29.4231 70.4398 33.2847C69.9698 34.2197 69.5198 35.1547 69.0998 36.0056C68.8126 36.4276 68.6956 36.9314 68.7698 37.4268C68.8159 37.5609 68.8938 37.6836 68.9977 37.7856C69.1016 37.8876 69.2288 37.9663 69.3698 38.0159C69.5844 38.0807 69.8056 38.1245 70.0298 38.1468C70.8614 38.308 71.7114 38.3708 72.5598 38.3338Z" fill="#263238"/>
<path d="M70.0792 55.2294C75.3084 55.6885 80.5711 54.7788 85.2792 52.6021C85.2792 52.6021 80.9091 59.6708 69.8691 57.8849L70.0792 55.2294Z" fill="#65463C"/>
<path d="M79.2104 24.6919C79.3604 25.0753 80.9004 24.8789 82.7104 25.0753C84.5204 25.2717 85.9804 25.7111 86.2104 25.3558C86.3204 25.1875 86.0604 24.8229 85.4704 24.4208C84.6869 23.954 83.7955 23.6687 82.8704 23.5886C81.943 23.4915 81.0043 23.6005 80.1304 23.9065C79.4704 24.1683 79.1404 24.5049 79.2104 24.6919Z" fill="#263238"/>
<path d="M64.5304 23.5978C64.8204 23.9438 66.1004 23.7007 67.6004 23.7942C69.1004 23.8877 70.3603 24.215 70.6803 23.8971C70.8203 23.7381 70.6803 23.4015 70.1203 23.0462C69.3871 22.6072 68.5406 22.3616 67.6703 22.3356C66.8028 22.2776 65.9349 22.4425 65.1604 22.8124C64.6004 23.1023 64.4004 23.4295 64.5304 23.5978Z" fill="#263238"/>
<path d="M89.6501 10.0496C89.5677 11.0943 89.2406 12.1093 88.6919 13.0226C88.1432 13.9359 87.3864 14.7252 86.4752 15.3346C85.5639 15.944 84.5205 16.3585 83.4188 16.5488C82.3171 16.7391 81.1841 16.7005 80.1002 16.4358C78.4302 16.0244 76.6302 15.0894 75.1002 15.828C73.5702 16.5667 73.2402 18.792 71.7802 19.8019C69.6902 21.2605 66.6901 19.54 64.1501 20.0543C62.1501 20.4564 60.8501 22.0833 59.4501 23.4391C58.0501 24.7948 56.0302 26.0384 54.1602 25.3652C54.3459 23.7487 54.7318 22.1579 55.3101 20.6247C55.8905 19.0683 57.028 17.7472 58.5302 16.8846C59.4094 16.5436 60.2675 16.1565 61.1002 15.7252C62.7902 14.6312 63.3301 12.5648 64.4501 10.9566C65.1837 9.91913 66.1717 9.06051 67.3318 8.45225C68.492 7.84398 69.7908 7.50367 71.1201 7.45965C73.3301 7.40355 75.5301 8.17961 77.7101 7.83366C79.3101 7.57185 80.7701 6.71164 82.3901 6.54334C85.5401 6.20673 88.2601 8.49752 90.3901 10.7322" fill="#263238"/>
<path d="M79.3595 13.4807C80.7795 13.2096 83.6995 12.5457 84.5395 11.4891C85.3879 10.3246 86.551 9.39103 87.9105 8.78334C89.2701 8.17566 90.7776 7.91558 92.2795 8.02956C93.7785 8.24696 95.1627 8.90998 96.2272 9.92042C97.2916 10.9309 97.9797 12.235 98.1895 13.6397C100.004 13.8289 101.73 14.4725 103.185 15.5028C104.641 16.533 105.772 17.9115 106.46 19.4929C107.164 21.1483 107.428 22.9387 107.229 24.7106C107.03 26.4824 106.375 28.1828 105.32 29.6658C104.811 30.4452 104.363 31.2576 103.979 32.0969C104.771 32.8036 105.488 33.5802 106.119 34.4157C109.069 38.8851 103.119 41.4657 103.119 41.4657C103.549 44.6635 100.4 45.0281 98.3795 45.2619C96.3595 45.4956 95.9295 50.6663 94.3795 50.6663L93.7595 34.9393C93.5386 35.0581 93.2932 35.1314 93.0395 35.1544C89.2495 35.678 89.2995 28.8243 90.2995 26.9356C88.9756 25.7587 87.8164 24.4297 86.8495 22.9805C85.8279 20.715 85.4324 18.2455 85.6995 15.7995C84.3295 15.7528 78.7595 13.6023 79.3595 13.4807Z" fill="#263238"/>
<path d="M93.2894 35.8371C93.3455 35.3193 93.543 34.8235 93.863 34.3975C94.1829 33.9715 94.6145 33.6295 95.1164 33.4042C95.6183 33.179 96.1736 33.078 96.7292 33.1111C97.2848 33.1442 97.8221 33.3102 98.2894 33.5931C99.3694 34.2757 100.129 35.566 99.8393 37.9035C99.0593 44.1494 92.5093 42.1298 92.5293 41.9428C92.5493 41.7558 92.9394 38.4178 93.2894 35.8371Z" fill="#E4B3A0"/>
<path d="M94.8108 39.8016C94.8108 39.8016 94.9208 39.8951 95.1008 39.9979C95.3649 40.1377 95.6761 40.1778 95.9708 40.1101C96.4341 39.9002 96.8298 39.5795 97.1178 39.1805C97.4059 38.7814 97.5759 38.3183 97.6108 37.838C97.6901 37.3056 97.6458 36.7635 97.4808 36.2485C97.4428 36.0461 97.3529 35.8553 97.2188 35.6924C97.0847 35.5296 96.9104 35.3996 96.7108 35.3135C96.5814 35.2642 96.4376 35.2588 96.3044 35.2981C96.1711 35.3373 96.0566 35.4188 95.9808 35.5285C95.8708 35.6968 95.9008 35.8277 95.8608 35.8371C95.8208 35.8464 95.7308 35.7155 95.8608 35.4631C95.9159 35.3117 96.0255 35.1828 96.1708 35.0984C96.2693 35.0441 96.3784 35.0086 96.4917 34.9942C96.6051 34.9797 96.7203 34.9866 96.8308 35.0143C97.0986 35.094 97.3403 35.2362 97.5328 35.4277C97.7253 35.6191 97.8622 35.8534 97.9308 36.1083C98.1448 36.6811 98.2066 37.294 98.1108 37.8941C98.0752 38.4498 97.8671 38.9838 97.5119 39.4306C97.1566 39.8773 96.6697 40.2175 96.1108 40.4093C95.9316 40.4302 95.7498 40.4152 95.5774 40.3652C95.4049 40.3153 95.2458 40.2315 95.1108 40.1195C94.7608 39.9512 94.7608 39.8109 94.8108 39.8016Z" fill="#65463C"/>
<path d="M57.4295 31.6484C57.4295 31.5923 56.7895 31.2931 55.8295 30.4515C54.4973 29.2411 53.5698 27.6949 53.1596 26.0009C52.8616 24.8428 52.8208 23.6399 53.0396 22.4665C53.2884 21.1306 53.9209 19.8831 54.8695 18.8574C55.9758 17.6941 57.3894 16.8228 58.9688 16.3306C60.5482 15.8383 62.238 15.7424 63.8695 16.0523C64.1895 16.1084 64.4796 16.2113 64.7896 16.2954C65.0996 16.3796 65.3595 16.5105 65.6295 16.6133L66.0595 16.7723V16.3609C65.9685 15.6309 66.1601 14.8945 66.5996 14.2851C67.0398 13.6907 67.613 13.193 68.2796 12.8265C69.5709 12.1292 71.0685 11.8406 72.5495 12.0037C75.4095 12.2561 77.9195 13.1631 80.1795 13.1257C81.9561 13.1946 83.6963 12.6411 85.0595 11.5736C85.4077 11.2714 85.6956 10.9136 85.9096 10.517C85.9849 10.3807 86.042 10.2363 86.0795 10.0869C85.7747 10.5925 85.3866 11.05 84.9295 11.4427C83.5673 12.4045 81.8836 12.8817 80.1795 12.7891C78.9984 12.7302 77.8263 12.5643 76.6795 12.2936C75.337 11.9578 73.97 11.7141 72.5896 11.5642C71.8233 11.4886 71.0495 11.5106 70.2896 11.6297C69.4895 11.7651 68.7212 12.031 68.0195 12.4151C67.2792 12.815 66.6437 13.3644 66.1596 14.0233C65.6544 14.7301 65.4346 15.5819 65.5396 16.4263L65.9096 16.1739C65.6196 16.0617 65.3195 15.9308 65.0095 15.8279C64.6811 15.7278 64.3473 15.6435 64.0095 15.5754C62.2884 15.2448 60.5044 15.3467 58.8391 15.8706C57.1738 16.3946 55.6868 17.3219 54.5296 18.5582C53.5371 19.6554 52.8806 20.9833 52.6295 22.4011C52.3888 23.8985 52.5446 25.4283 53.0833 26.8563C53.6221 28.2844 54.5273 29.567 55.7196 30.5918C56.1029 30.9148 56.5258 31.1941 56.9795 31.424C57.1217 31.5117 57.2724 31.5868 57.4295 31.6484Z" fill="#455A64"/>
<path d="M55.7598 10.2086C56.367 9.79632 57.0427 9.48041 57.7598 9.27359C58.5744 9.06359 59.4298 9.0316 60.2598 9.18009C61.33 9.35678 62.3075 9.85981 63.0398 10.6107L63.3398 10.9099L63.4398 10.5172C63.803 9.29912 64.5069 8.19359 65.4788 7.31437C66.4508 6.43514 67.6558 5.81399 68.9698 5.51483C71.0545 5.18309 73.1981 5.49144 75.0798 6.39374C76.6813 7.11365 78.3565 7.68066 80.0798 8.08612C81.2584 8.36126 82.4912 8.36126 83.6697 8.08612C83.9816 7.9959 84.2831 7.87687 84.5698 7.73081C84.7598 7.61861 84.8598 7.55316 84.8498 7.54381C84.8398 7.53446 84.4197 7.72146 83.6097 7.89912C82.4653 8.10407 81.2862 8.06573 80.1598 7.78692C78.4784 7.33568 76.8449 6.741 75.2798 6.01039C74.3149 5.6077 73.3101 5.29453 72.2798 5.07537C71.1512 4.8323 69.9783 4.8323 68.8498 5.07537C67.4447 5.39287 66.1577 6.06043 65.1259 7.00709C64.0941 7.95375 63.3559 9.14413 62.9897 10.4517L63.3798 10.3582C62.5688 9.55509 61.4896 9.03405 60.3198 8.88088C59.4357 8.74581 58.5298 8.81319 57.6797 9.07724C57.1372 9.24348 56.6297 9.49658 56.1797 9.82525C55.9197 10.0403 55.7598 10.1899 55.7598 10.2086Z" fill="#455A64"/>
<path d="M73.5197 41.3629C73.7321 41.1389 73.9943 40.9609 74.2879 40.8414C74.5816 40.7219 74.8996 40.6637 75.2197 40.671C75.5813 40.6955 75.9332 40.7915 76.2521 40.9527C76.571 41.1139 76.8497 41.3366 77.0697 41.606L77.1397 41.6808C77.3176 41.874 77.4199 42.118 77.4297 42.3728C77.4192 42.6541 77.3343 42.9287 77.1825 43.1719C77.0306 43.415 76.8166 43.6191 76.5597 43.7659C76.1684 44.0265 75.7 44.1665 75.2197 44.1665C74.7394 44.1665 74.2709 44.0265 73.8797 43.7659C73.507 43.4814 73.2629 43.0759 73.1962 42.6304C73.1295 42.1849 73.245 41.7322 73.5197 41.3629Z" fill="#65463C"/>
<path d="M77.4899 40.1943C77.3999 40.1943 77.2699 40.4935 76.9399 40.933C76.5295 41.5022 75.9423 41.94 75.2574 42.1874C74.5726 42.4349 73.8231 42.48 73.1099 42.3168C72.5499 42.2046 72.2199 42.0457 72.1699 42.1205C72.1199 42.1953 72.3899 42.4664 72.9899 42.7002C73.7885 42.9849 74.6713 42.9849 75.47 42.7002C76.2718 42.4089 76.9257 41.8442 77.2999 41.12C77.5799 40.587 77.5599 40.2037 77.4899 40.1943Z" fill="#263238"/>
<path d="M103.21 22.9433C103.21 22.9433 103.32 22.8872 103.51 22.7376C103.775 22.5222 104.026 22.2911 104.26 22.0456C105.138 21.1347 105.757 20.0318 106.06 18.8386C106.266 18.005 106.266 17.1382 106.06 16.3047C105.837 15.3401 105.319 14.4567 104.57 13.7614C104.152 13.3736 103.655 13.0678 103.109 12.8623C102.563 12.6567 101.978 12.5555 101.39 12.5646C100.755 12.55 100.125 12.6743 99.5501 12.9275C98.9755 13.1807 98.472 13.5559 98.0798 14.0232L98.3898 14.1822V14.1074C99.255 11.9881 99.1867 9.63456 98.1998 7.56226C97.7852 6.72491 97.1589 5.99451 96.3749 5.43413C95.5909 4.87374 94.6728 4.50022 93.6998 4.34581C93.0419 4.26928 92.3743 4.31761 91.7368 4.4879C91.0994 4.6582 90.5052 4.94697 89.9898 5.33692C89.7127 5.54842 89.4672 5.79371 89.2598 6.06624C89.1895 6.16201 89.1324 6.26568 89.0898 6.37479C89.3826 6.02735 89.7183 5.7135 90.0898 5.43978C91.1259 4.73695 92.4108 4.43241 93.6798 4.58891C94.6049 4.75073 95.4745 5.1192 96.2145 5.66296C96.9545 6.20671 97.543 6.90964 97.9298 7.71187C98.8585 9.71352 98.9124 11.9756 98.0798 14.0139V14.0793L97.7398 15.0143L98.3798 14.1915C98.7384 13.7702 99.1949 13.4308 99.7147 13.1991C100.235 12.9675 100.804 12.8496 101.38 12.8545C101.923 12.8466 102.462 12.9393 102.967 13.127C103.471 13.3147 103.931 13.5939 104.32 13.9484C105.032 14.6032 105.531 15.4331 105.76 16.3421C105.948 17.1397 105.948 17.9661 105.76 18.7637C105.482 19.9299 104.909 21.0167 104.09 21.9334C103.58 22.616 103.19 22.9246 103.21 22.9433Z" fill="#263238"/>
<path d="M7.37093 80.3533L13.851 103.242C14.0172 103.863 14.4053 104.412 14.951 104.798C15.4966 105.184 16.167 105.384 16.851 105.365L50.411 104.748C50.8615 104.747 51.3061 104.652 51.7118 104.468C52.1175 104.285 52.4738 104.019 52.7543 103.689C53.0348 103.36 53.2323 102.975 53.3322 102.564C53.432 102.153 53.4316 101.727 53.331 101.316L48.391 79.3902C48.2548 78.7436 47.8796 78.1625 47.331 77.7487C46.7825 77.335 46.0956 77.115 45.391 77.1275H10.031C9.60947 77.1255 9.19313 77.2145 8.81442 77.3875C8.4357 77.5605 8.10481 77.8129 7.84744 78.125C7.59006 78.4372 7.41317 78.8006 7.33053 79.1871C7.24789 79.5735 7.26171 79.9726 7.37093 80.3533Z" fill="#263238"/>
<path d="M4.54999 85.5239C4.22232 85.1206 4.04498 84.6279 4.04498 84.1214C4.04498 83.6149 4.22232 83.1223 4.54999 82.7189C4.90126 82.3228 5.34123 82.0036 5.83887 81.7839C6.3365 81.5641 6.87967 81.4492 7.42999 81.4473C8.53319 81.4517 9.62443 81.6615 10.64 82.0644C11.9063 82.52 13.122 83.0899 14.27 83.7661C14.7016 83.9596 15.0853 84.2349 15.3969 84.5746C15.7085 84.9142 15.9412 85.3108 16.08 85.739C16.24 86.6273 15.21 87.609 14.38 87.1883C14.9649 87.4177 15.4829 87.774 15.8915 88.2276C16.3001 88.6811 16.5875 89.2191 16.73 89.797C16.9 90.919 16.26 91.5174 15.1 91.8446C15.5348 92.0091 15.8831 92.3266 16.0701 92.7288C16.2571 93.131 16.2679 93.5857 16.1 93.9952C15.8352 94.3886 15.4277 94.6798 14.9521 94.8154C14.4765 94.951 13.9646 94.9221 13.51 94.7338C12.6138 94.3256 11.8405 93.7151 11.26 92.9573C11.9212 94.0319 12.1483 95.2926 11.9 96.5104C10.6186 96.0819 9.4881 95.3317 8.63257 94.3421C7.77704 93.3525 7.22947 92.1616 7.04999 90.9003C6.43436 90.4422 6.00528 89.8007 5.83423 89.0827C5.66317 88.3647 5.76048 87.6136 6.10999 86.9545C5.51785 86.7117 5.00814 86.3219 4.63617 85.8274C4.2642 85.3329 4.04419 84.7526 4 84.1495" fill="#E4B3A0"/>
<path d="M15.0606 91.8164C14.6744 91.576 14.3068 91.3104 13.9606 91.0216C13.1085 90.3623 12.1116 89.8867 11.0406 89.6284C10.4578 89.5067 9.85345 89.5067 9.27063 89.6284C8.79979 89.7442 8.36023 89.9512 7.98059 90.2362C7.64129 90.5186 7.3571 90.8539 7.14063 91.2273C7.14063 91.2273 7.14059 91.0964 7.23059 90.8814C7.38108 90.5846 7.59168 90.3179 7.85065 90.0959C8.23717 89.7635 8.70365 89.5229 9.21063 89.3947C9.83221 89.2584 10.4791 89.2584 11.1006 89.3947C12.2212 89.6501 13.2536 90.1682 14.1006 90.9C14.4628 91.1643 14.7856 91.4724 15.0606 91.8164Z" fill="#65463C"/>
<path d="M14.76 87.2631C14.2937 87.1363 13.8441 86.9606 13.42 86.7395C12.9551 86.519 12.4777 86.3224 11.99 86.1504C11.3907 85.9566 10.7753 85.8097 10.15 85.711C9.53196 85.6038 8.8981 85.6038 8.28003 85.711C7.78139 85.8004 7.31011 85.992 6.90002 86.272C6.52615 86.5444 6.21921 86.8888 6 87.2818C6 87.2818 5.99999 87.1415 6.10999 86.9171C6.26569 86.608 6.49489 86.3361 6.78003 86.1223C7.20375 85.8038 7.69965 85.5799 8.22998 85.4678C8.89042 85.3473 9.56955 85.3473 10.23 85.4678C10.8705 85.5745 11.4996 85.7341 12.11 85.9447C12.6014 86.13 13.0791 86.3455 13.54 86.5899C13.9639 86.7858 14.3717 87.0108 14.76 87.2631Z" fill="#65463C"/>
<path d="M29.4492 88.1982H29.6291C30.0636 88.2202 30.4718 88.3998 30.7668 88.6989C31.0618 88.9979 31.2203 89.3929 31.2086 89.7996C31.1968 90.2062 31.0158 90.5926 30.704 90.8764C30.3922 91.1601 29.9743 91.3189 29.5392 91.3189C29.1041 91.3189 28.6861 91.1601 28.3743 90.8764C28.0625 90.5926 27.8815 90.2062 27.8697 89.7996C27.858 89.3929 28.0165 88.9979 28.3115 88.6989C28.6065 88.3998 29.0147 88.2202 29.4492 88.1982Z" fill="white"/>
<path d="M62.0601 80.325C62.0601 80.325 58.5001 73.8266 57.4501 74.21C56.4001 74.5933 55.0201 74.612 55.6901 77.0711C56.3601 79.5302 58.1101 81.2132 58.0101 83.1394C57.9101 85.0655 56.2901 89.3946 58.0801 91.4142C59.8701 93.4339 62.9102 99.4834 62.9102 99.4834L70.8001 92.0033L69.0302 89.5816C69.0302 89.5816 72.0301 85.7481 72.5701 83.5227C72.8534 81.7271 72.7549 79.8969 72.2802 78.137C72.3774 76.9881 72.0758 75.8404 71.4201 74.8645C71.5373 73.8742 71.5875 72.878 71.5701 71.8818C71.5701 70.3764 67.3901 64.1772 67.3901 64.1772C66.8159 64.3874 66.3498 64.7953 66.0875 65.3171C65.8252 65.8389 65.7867 66.4348 65.9801 66.9823C66.4243 68.2951 66.9691 69.5762 67.6101 70.8159L62.7601 69.0487C62.586 69.3561 62.4816 69.694 62.4537 70.0409C62.4258 70.3878 62.475 70.7364 62.598 71.0648C62.721 71.3932 62.9152 71.6942 63.1686 71.949C63.4219 72.2039 63.7289 72.407 64.0701 72.5456C66.6401 73.8453 67.0701 74.9393 67.0701 74.9393L63.3801 75.2011C63.3801 75.2011 63.0401 77.0711 64.5201 77.5012L65.9901 77.8939L62.0601 80.325Z" fill="#E4B3A0"/>
<path d="M64.2091 77.4639L67.5291 78.1371H67.5791V78.1838C68.0476 79.0351 68.2716 79.9856 68.229 80.9421C68.1248 82.0906 67.6066 83.1719 66.7591 84.009C65.7797 84.8237 64.6695 85.4895 63.4691 85.9819C62.5183 86.3944 61.6598 86.9719 60.9391 87.6836C60.4704 88.1716 60.1524 88.7695 60.0191 89.4134C59.9291 89.8715 60.0191 90.1333 59.9491 90.1333C59.8791 90.1333 59.9491 90.0772 59.9491 89.9463C59.9222 89.7633 59.9222 89.5777 59.9491 89.3947C60.0459 88.7056 60.3512 88.0568 60.8291 87.5246C61.5488 86.778 62.4187 86.1712 63.3891 85.7388C64.5547 85.235 65.6387 84.5803 66.6091 83.7939C67.4273 83.0056 67.9441 81.9866 68.0791 80.8954C68.1262 79.9788 67.9268 79.0658 67.4991 78.2399L67.5691 78.296C66.4247 78.1132 65.3002 77.8347 64.2091 77.4639Z" fill="#65463C"/>
<path d="M71.4908 77.8474C71.4408 77.8474 71.3708 77.5575 71.1508 77.1181C70.8452 76.5637 70.3723 76.1053 69.7908 75.7997C69.191 75.5012 68.5474 75.287 67.8808 75.1639C67.596 75.1389 67.3165 75.0759 67.0508 74.9769C67.3373 74.9172 67.6343 74.9172 67.9208 74.9769C68.6208 75.0495 69.2996 75.2463 69.9208 75.5566C70.2688 75.7423 70.5801 75.9827 70.8408 76.2672C71.0424 76.5014 71.2042 76.7631 71.3208 77.0433C71.453 77.2924 71.5117 77.57 71.4908 77.8474Z" fill="#65463C"/>
<path d="M71.0694 74.0234C70.9894 74.0234 70.4394 73.1912 69.4894 72.331C68.5394 71.4708 67.6195 70.9659 67.6595 70.8911C69.1939 71.4732 70.4197 72.5993 71.0694 74.0234Z" fill="#65463C"/>
</g>
<defs>
<filter id="filter0_d_2_47568" x="0" y="0" width="140.416" height="356.619" filterUnits="userSpaceOnUse" color-interpolation-filters="sRGB">
<feFlood flood-opacity="0" result="BackgroundImageFix"/>
<feColorMatrix in="SourceAlpha" type="matrix" values="0 0 0 0 0 0 0 0 0 0 0 0 0 0 0 0 0 0 127 0" result="hardAlpha"/>
<feOffset dy="4"/>
<feGaussianBlur stdDeviation="2"/>
<feComposite in2="hardAlpha" operator="out"/>
<feColorMatrix type="matrix" values="0 0 0 0 0 0 0 0 0 0 0 0 0 0 0 0 0 0 0.25 0"/>
<feBlend mode="normal" in2="BackgroundImageFix" result="effect1_dropShadow_2_47568"/>
<feBlend mode="normal" in="SourceGraphic" in2="effect1_dropShadow_2_47568" result="shape"/>
</filter>
</defs>
</svg>
