<svg width="50" height="37" viewBox="0 0 50 37" fill="none" xmlns="http://www.w3.org/2000/svg">
<g clip-path="url(#clip0_2_47850)">
<path d="M11.156 36.8177V17.8557L5.27532 12.4757L0.00195312 9.49023V33.4714C0.00195312 35.3229 1.50208 36.8177 3.34825 36.8177H11.156Z" fill="#4285F4"/>
<path d="M37.9238 36.8175H45.7316C47.5833 36.8175 49.0779 35.3172 49.0779 33.4712V9.49023L43.105 12.9098L37.9238 17.8555V36.8175Z" fill="#34A853"/>
<path d="M11.1557 17.8556L10.3555 10.4466L11.1557 3.35547L24.5405 13.3942L37.9253 3.35547L38.8204 10.0638L37.9253 17.8556L24.5405 27.8943L11.1557 17.8556Z" fill="#EA4335"/>
<path d="M37.9258 3.35563V17.8558L49.0798 9.49035V5.02868C49.0798 0.890625 44.3561 -1.46837 41.0491 1.01332L37.9258 3.35563Z" fill="#FBBC04"/>
<path d="M0.00195312 9.49043L5.13192 13.338L11.156 17.8559V3.35572L8.03268 1.01341C4.71993 -1.46847 0.00195312 0.890712 0.00195312 5.02858V9.49043Z" fill="#C5221F"/>
</g>
<defs>
<clipPath id="clip0_2_47850">
<rect width="49.0809" height="37" fill="white"/>
</clipPath>
</defs>
</svg>
