<svg width="48" height="48" viewBox="0 0 48 48" fill="none" xmlns="http://www.w3.org/2000/svg">
<path d="M1.517 14.556C2.075 32.293 16.628 46.5 34.5 46.5C41.333 46.5 46.5 41.165 46.5 34.431C46.5 33.5316 46.2304 32.6529 45.7262 31.9082C45.2219 31.1635 44.5061 30.587 43.671 30.253L37.506 27.787C36.5066 27.3871 35.4119 27.2893 34.3574 27.5056C33.303 27.7219 32.3352 28.2429 31.574 29.004L28.498 32.081C28.362 32.217 28.209 32.233 28.116 32.205C25.2106 31.3173 22.5677 29.7296 20.4196 27.5814C18.2714 25.4333 16.6837 22.7904 15.796 19.885C15.767 19.791 15.783 19.638 15.919 19.502L18.996 16.426C19.7571 15.6648 20.2781 14.697 20.4944 13.6426C20.7107 12.5881 20.6129 11.4934 20.213 10.494L17.747 4.329C17.413 3.49394 16.8365 2.7781 16.0918 2.27384C15.3471 1.76959 14.4684 1.50005 13.569 1.5C6.204 1.5 1.403 7.361 1.517 14.556Z" fill="#8FBFFA"/>
</svg>
