<svg width="48" height="48" viewBox="0 0 48 48" fill="none" xmlns="http://www.w3.org/2000/svg">
<g clip-path="url(#clip0_2_47834)">
<path d="M1.01585 23.7126C1.01473 27.7455 2.0685 31.6834 4.07222 35.1543L0.824219 47.0132L12.9604 43.8311C16.3171 45.6584 20.0781 46.6159 23.8999 46.6162H23.91C36.5267 46.6162 46.7971 36.3496 46.8025 23.7306C46.8049 17.6158 44.4257 11.8659 40.1031 7.53994C35.7812 3.21436 30.0333 0.830916 23.9091 0.828125C11.2908 0.828125 1.02124 11.0942 1.01603 23.7126" fill="url(#paint0_linear_2_47834)"/>
<path d="M0.19907 23.7053C0.197767 27.8834 1.2893 31.962 3.36446 35.5572L0 47.8413L12.5713 44.5451C16.0352 46.4337 19.9351 47.4294 23.9034 47.4309H23.9137C36.9831 47.4309 47.6223 36.795 47.6279 23.7243C47.6301 17.3898 45.1654 11.4331 40.6884 6.95219C36.2108 2.47181 30.2573 0.00260465 23.9137 0C10.842 0 0.204279 10.6344 0.19907 23.7053ZM7.68577 34.938L7.21637 34.1929C5.24316 31.0554 4.20167 27.4298 4.20316 23.7068C4.20726 12.8426 13.0489 4.00372 23.9211 4.00372C29.1862 4.00595 34.1343 6.05842 37.856 9.78233C41.5775 13.5066 43.6253 18.4573 43.624 23.7228C43.6192 34.587 34.7773 43.427 23.9137 43.427H23.9059C20.3686 43.4251 16.8993 42.4752 13.8739 40.68L13.1539 40.253L5.69377 42.2089L7.68577 34.938Z" fill="#EAEAEA"/>
<path d="M17.9861 13.7944C17.5422 12.8078 17.075 12.7879 16.6529 12.7706C16.3072 12.7557 15.912 12.7569 15.5172 12.7569C15.1221 12.7569 14.48 12.9055 13.9373 13.4981C13.3941 14.0912 11.8633 15.5245 11.8633 18.4396C11.8633 21.3548 13.9866 24.1723 14.2826 24.568C14.579 24.963 18.3818 31.1368 24.4045 33.5118C29.4099 35.4856 30.4285 35.093 31.5148 34.9941C32.6013 34.8955 35.0207 33.5611 35.5143 32.1775C36.0082 30.7941 36.0082 29.6082 35.8601 29.3604C35.712 29.1135 35.3169 28.9652 34.7243 28.669C34.1317 28.3729 31.2184 26.9392 30.6754 26.7414C30.1321 26.5438 29.7371 26.4452 29.342 27.0385C28.9468 27.6309 27.8121 28.9652 27.4663 29.3604C27.1208 29.7565 26.7749 29.8058 26.1825 29.5094C25.5896 29.2121 23.6813 28.5872 21.4173 26.5688C19.6558 24.9982 18.4666 23.0586 18.121 22.4653C17.7753 21.8729 18.0839 21.5518 18.381 21.2566C18.6473 20.9911 18.9738 20.5647 19.2704 20.2188C19.5658 19.8728 19.6644 19.6259 19.862 19.2307C20.0597 18.8352 19.9608 18.4891 19.8129 18.1928C19.6644 17.8964 18.513 14.966 17.9861 13.7944Z" fill="white"/>
</g>
<defs>
<linearGradient id="paint0_linear_2_47834" x1="2299.74" y1="4619.34" x2="2299.74" y2="0.828125" gradientUnits="userSpaceOnUse">
<stop stop-color="#1FAF38"/>
<stop offset="1" stop-color="#60D669"/>
</linearGradient>
<clipPath id="clip0_2_47834">
<rect width="47.6279" height="48" fill="white"/>
</clipPath>
</defs>
</svg>
