<svg width="24" height="24" viewBox="0 0 24 24" fill="none" xmlns="http://www.w3.org/2000/svg">
<path d="M6.91857 0H16.9386C20.7557 0 23.8571 3.10143 23.8571 6.91857V16.9386C23.8571 18.7735 23.1282 20.5333 21.8307 21.8307C20.5333 23.1282 18.7735 23.8571 16.9386 23.8571H6.91857C3.10143 23.8571 0 20.7557 0 16.9386V6.91857C0 5.08365 0.728919 3.32389 2.0264 2.0264C3.32389 0.728919 5.08365 0 6.91857 0ZM6.68 2.38571C5.54108 2.38571 4.44882 2.83815 3.64348 3.64348C2.83815 4.44882 2.38571 5.54108 2.38571 6.68V17.1771C2.38571 19.5509 4.30621 21.4714 6.68 21.4714H17.1771C18.3161 21.4714 19.4083 21.019 20.2137 20.2137C21.019 19.4083 21.4714 18.3161 21.4714 17.1771V6.68C21.4714 4.30621 19.5509 2.38571 17.1771 2.38571H6.68ZM18.1911 4.175C18.5865 4.175 18.9658 4.33209 19.2454 4.61172C19.525 4.89136 19.6821 5.27061 19.6821 5.66607C19.6821 6.06153 19.525 6.44079 19.2454 6.72042C18.9658 7.00005 18.5865 7.15714 18.1911 7.15714C17.7956 7.15714 17.4164 7.00005 17.1367 6.72042C16.8571 6.44079 16.7 6.06153 16.7 5.66607C16.7 5.27061 16.8571 4.89136 17.1367 4.61172C17.4164 4.33209 17.7956 4.175 18.1911 4.175ZM11.9286 5.96429C13.5104 5.96429 15.0274 6.59266 16.146 7.71118C17.2645 8.82971 17.8929 10.3467 17.8929 11.9286C17.8929 13.5104 17.2645 15.0274 16.146 16.146C15.0274 17.2645 13.5104 17.8929 11.9286 17.8929C10.3467 17.8929 8.82971 17.2645 7.71118 16.146C6.59266 15.0274 5.96429 13.5104 5.96429 11.9286C5.96429 10.3467 6.59266 8.82971 7.71118 7.71118C8.82971 6.59266 10.3467 5.96429 11.9286 5.96429ZM11.9286 8.35C10.9795 8.35 10.0693 8.72703 9.39814 9.39814C8.72703 10.0693 8.35 10.9795 8.35 11.9286C8.35 12.8777 8.72703 13.7879 9.39814 14.459C10.0693 15.1301 10.9795 15.5071 11.9286 15.5071C12.8777 15.5071 13.7879 15.1301 14.459 14.459C15.1301 13.7879 15.5071 12.8777 15.5071 11.9286C15.5071 10.9795 15.1301 10.0693 14.459 9.39814C13.7879 8.72703 12.8777 8.35 11.9286 8.35Z" fill="#A6A6A6"/>
</svg>
