<svg width="24" height="24" viewBox="0 0 24 24" fill="none" xmlns="http://www.w3.org/2000/svg">
<path d="M21.2064 0C21.9094 0 22.5836 0.279279 23.0807 0.776399C23.5779 1.27352 23.8571 1.94776 23.8571 2.65079V21.2064C23.8571 21.9094 23.5779 22.5836 23.0807 23.0807C22.5836 23.5779 21.9094 23.8571 21.2064 23.8571H2.65079C1.94776 23.8571 1.27352 23.5779 0.776399 23.0807C0.279279 22.5836 0 21.9094 0 21.2064V2.65079C0 1.94776 0.279279 1.27352 0.776399 0.776399C1.27352 0.279279 1.94776 0 2.65079 0H21.2064ZM20.5437 20.5437V13.519C20.5437 12.3731 20.0884 11.2741 19.2781 10.4638C18.4678 9.65348 17.3688 9.19825 16.2229 9.19825C15.0963 9.19825 13.7841 9.88746 13.1479 10.9213V9.45008H9.45008V20.5437H13.1479V14.0094C13.1479 12.9889 13.9697 12.1539 14.9902 12.1539C15.4824 12.1539 15.9543 12.3494 16.3023 12.6974C16.6503 13.0454 16.8458 13.5173 16.8458 14.0094V20.5437H20.5437ZM5.14254 7.36921C5.73309 7.36921 6.29945 7.13461 6.71703 6.71703C7.13461 6.29945 7.36921 5.73309 7.36921 5.14254C7.36921 3.90992 6.37516 2.90262 5.14254 2.90262C4.54848 2.90262 3.97874 3.13861 3.55868 3.55868C3.13861 3.97874 2.90262 4.54848 2.90262 5.14254C2.90262 6.37516 3.90992 7.36921 5.14254 7.36921ZM6.98484 20.5437V9.45008H3.31349V20.5437H6.98484Z" fill="#A6A6A6"/>
</svg>
