<svg width="252" height="41" viewBox="0 0 252 41" fill="none" xmlns="http://www.w3.org/2000/svg">
<rect x="13.1875" y="13.9482" width="11.7218" height="11.7218" rx="5.86088" fill="white"/>
<path d="M0 6.6226C0 3.38573 2.624 0.761719 5.86088 0.761719H32.2348C35.4717 0.761719 38.0957 3.38572 38.0957 6.62259V12.4835H0V6.6226Z" fill="white"/>
<path d="M0 13.9482H11.7218V38.857H5.86088C2.62401 38.857 0 36.233 0 32.9961V13.9482Z" fill="#CE4B55"/>
<path d="M26.375 13.9482H38.0968V32.9961C38.0968 36.233 35.4727 38.857 32.2359 38.857H26.375V13.9482Z" fill="white"/>
<rect x="13.1875" y="27.1357" width="11.7218" height="11.7218" fill="#CE4B55"/>
<path d="M68.055 20.7521C68.055 23.3914 67.5606 25.652 66.5719 27.5339C65.5911 29.4078 64.2515 30.8431 62.553 31.8398C60.8625 32.8365 58.9448 33.3349 56.7998 33.3349C54.6549 33.3349 52.7331 32.8365 51.0347 31.8398C49.3442 30.8351 48.0046 29.3958 47.0159 27.5219C46.0351 25.6401 45.5447 23.3835 45.5447 20.7521C45.5447 18.1127 46.0351 15.8561 47.0159 13.9822C48.0046 12.1004 49.3442 10.6611 51.0347 9.66436C52.7331 8.66762 54.6549 8.16925 56.7998 8.16925C58.9448 8.16925 60.8625 8.66762 62.553 9.66436C64.2515 10.6611 65.5911 12.1004 66.5719 13.9822C67.5606 15.8561 68.055 18.1127 68.055 20.7521ZM63.5936 20.7521C63.5936 18.8942 63.3026 17.3273 62.7205 16.0515C62.1463 14.7677 61.349 13.7988 60.3283 13.145C59.3076 12.4831 58.1315 12.1522 56.7998 12.1522C55.4682 12.1522 54.292 12.4831 53.2714 13.145C52.2507 13.7988 51.4494 14.7677 50.8673 16.0515C50.2931 17.3273 50.0061 18.8942 50.0061 20.7521C50.0061 22.61 50.2931 24.1809 50.8673 25.4647C51.4494 26.7405 52.2507 27.7093 53.2714 28.3711C54.292 29.025 55.4682 29.3519 56.7998 29.3519C58.1315 29.3519 59.3076 29.025 60.3283 28.3711C61.349 27.7093 62.1463 26.7405 62.7205 25.4647C63.3026 24.1809 63.5936 22.61 63.5936 20.7521ZM73.6942 22.2352V33H69.3644V14.6281H73.5028V17.7499H73.7181C74.1407 16.7213 74.8145 15.9039 75.7395 15.2979C76.6725 14.6919 77.8247 14.3889 79.1962 14.3889C80.464 14.3889 81.5684 14.66 82.5094 15.2022C83.4583 15.7445 84.1919 16.5299 84.7102 17.5585C85.2364 18.5872 85.4956 19.8351 85.4876 21.3023V33H81.1578V21.9721C81.1578 20.7441 80.8388 19.7832 80.2009 19.0895C79.571 18.3958 78.6978 18.0489 77.5815 18.0489C76.824 18.0489 76.1502 18.2164 75.5601 18.5513C74.978 18.8782 74.5195 19.3527 74.1846 19.9746C73.8577 20.5966 73.6942 21.3501 73.6942 22.2352ZM91.5245 8.50415V33H87.1947V8.50415H91.5245ZM93.2824 33V14.6281H97.6122V33H93.2824ZM95.4593 12.0206C94.7735 12.0206 94.1834 11.7934 93.6891 11.3389C93.1947 10.8764 92.9475 10.3222 92.9475 9.67632C92.9475 9.02246 93.1947 8.46827 93.6891 8.01376C94.1834 7.55127 94.7735 7.32003 95.4593 7.32003C96.153 7.32003 96.7431 7.55127 97.2295 8.01376C97.7239 8.46827 97.971 9.02246 97.971 9.67632C97.971 10.3222 97.7239 10.8764 97.2295 11.3389C96.7431 11.7934 96.153 12.0206 95.4593 12.0206ZM103.7 22.2352V33H99.3701V14.6281H103.509V17.7499H103.724C104.146 16.7213 104.82 15.9039 105.745 15.2979C106.678 14.6919 107.83 14.3889 109.202 14.3889C110.47 14.3889 111.574 14.66 112.515 15.2022C113.464 15.7445 114.198 16.5299 114.716 17.5585C115.242 18.5872 115.501 19.8351 115.493 21.3023V33H111.164V21.9721C111.164 20.7441 110.845 19.7832 110.207 19.0895C109.577 18.3958 108.704 18.0489 107.587 18.0489C106.83 18.0489 106.156 18.2164 105.566 18.5513C104.984 18.8782 104.525 19.3527 104.19 19.9746C103.863 20.5966 103.7 21.3501 103.7 22.2352ZM125.334 33.3588C123.492 33.3588 121.901 32.9761 120.561 32.2106C119.23 31.4371 118.205 30.3447 117.487 28.9333C116.77 27.514 116.411 25.8434 116.411 23.9217C116.411 22.0319 116.77 20.3733 117.487 18.946C118.213 17.5107 119.226 16.3943 120.526 15.5969C121.825 14.7916 123.352 14.3889 125.107 14.3889C126.239 14.3889 127.307 14.5723 128.312 14.9391C129.325 15.2979 130.218 15.8561 130.991 16.6136C131.773 17.3711 132.387 18.336 132.833 19.5081C133.28 20.6723 133.503 22.0598 133.503 23.6705V24.9982H118.444V22.0797H129.353C129.345 21.2504 129.165 20.5129 128.814 19.867C128.464 19.2131 127.973 18.6988 127.343 18.324C126.721 17.9492 125.996 17.7619 125.166 17.7619C124.281 17.7619 123.504 17.9772 122.834 18.4077C122.164 18.8304 121.642 19.3885 121.267 20.0823C120.9 20.768 120.713 21.5216 120.705 22.3429V24.8905C120.705 25.959 120.9 26.876 121.291 27.6415C121.682 28.3991 122.228 28.9811 122.93 29.3878C123.631 29.7865 124.453 29.9859 125.394 29.9859C126.024 29.9859 126.594 29.8981 127.104 29.7227C127.614 29.5393 128.057 29.2722 128.432 28.9213C128.806 28.5705 129.09 28.1359 129.281 27.6176L133.324 28.0721C133.068 29.1406 132.582 30.0736 131.864 30.871C131.155 31.6604 130.246 32.2744 129.137 32.7129C128.029 33.1435 126.761 33.3588 125.334 33.3588Z" fill="white"/>
<path d="M131.876 12.224V8.50415H151.42V12.224H143.849V33H139.447V12.224H131.876ZM155.089 33.3708C153.925 33.3708 152.876 33.1635 151.943 32.7488C151.018 32.3262 150.284 31.7042 149.742 30.8829C149.208 30.0616 148.941 29.0489 148.941 27.8449C148.941 26.8083 149.132 25.9511 149.515 25.2733C149.898 24.5955 150.42 24.0533 151.082 23.6466C151.744 23.2399 152.489 22.9329 153.319 22.7256C154.156 22.5103 155.021 22.3548 155.914 22.2591C156.99 22.1475 157.864 22.0478 158.533 21.9601C159.203 21.8644 159.69 21.7209 159.993 21.5295C160.304 21.3302 160.459 21.0232 160.459 20.6085V20.5368C160.459 19.6357 160.192 18.938 159.658 18.4436C159.124 17.9492 158.354 17.7021 157.349 17.7021C156.289 17.7021 155.448 17.9333 154.826 18.3958C154.212 18.8583 153.797 19.4045 153.582 20.0344L149.539 19.4603C149.858 18.344 150.384 17.411 151.118 16.6615C151.851 15.9039 152.748 15.3378 153.809 14.963C154.869 14.5803 156.042 14.3889 157.325 14.3889C158.211 14.3889 159.092 14.4926 159.969 14.6999C160.846 14.9072 161.647 15.2501 162.373 15.7285C163.099 16.199 163.681 16.8409 164.119 17.6542C164.566 18.4676 164.789 19.4842 164.789 20.7042V33H160.627V30.4763H160.483C160.22 30.9866 159.849 31.465 159.371 31.9116C158.9 32.3501 158.306 32.705 157.589 32.9761C156.879 33.2392 156.046 33.3708 155.089 33.3708ZM156.213 30.1892C157.082 30.1892 157.836 30.0178 158.474 29.6749C159.112 29.324 159.602 28.8615 159.945 28.2874C160.296 27.7133 160.471 27.0873 160.471 26.4096V24.2446C160.336 24.3563 160.104 24.4599 159.777 24.5556C159.458 24.6513 159.1 24.735 158.701 24.8068C158.302 24.8786 157.907 24.9424 157.517 24.9982C157.126 25.054 156.787 25.1018 156.5 25.1417C155.854 25.2294 155.276 25.373 154.766 25.5723C154.255 25.7717 153.853 26.0507 153.558 26.4096C153.263 26.7604 153.115 27.2149 153.115 27.7731C153.115 28.5705 153.406 29.1725 153.988 29.5792C154.57 29.9859 155.312 30.1892 156.213 30.1892ZM169.989 14.6281L173.696 21.4099L177.464 14.6281H182.045L176.507 23.8141L182.141 33H177.584L173.696 26.3856L169.845 33H165.252L170.85 23.8141L165.396 14.6281H169.989ZM187.921 33.3708C186.756 33.3708 185.708 33.1635 184.775 32.7488C183.85 32.3262 183.116 31.7042 182.574 30.8829C182.04 30.0616 181.773 29.0489 181.773 27.8449C181.773 26.8083 181.964 25.9511 182.347 25.2733C182.73 24.5955 183.252 24.0533 183.914 23.6466C184.576 23.2399 185.321 22.9329 186.15 22.7256C186.988 22.5103 187.853 22.3548 188.746 22.2591C189.822 22.1475 190.695 22.0478 191.365 21.9601C192.035 21.8644 192.522 21.7209 192.825 21.5295C193.136 21.3302 193.291 21.0232 193.291 20.6085V20.5368C193.291 19.6357 193.024 18.938 192.49 18.4436C191.955 17.9492 191.186 17.7021 190.181 17.7021C189.121 17.7021 188.279 17.9333 187.657 18.3958C187.043 18.8583 186.629 19.4045 186.414 20.0344L182.371 19.4603C182.69 18.344 183.216 17.411 183.95 16.6615C184.683 15.9039 185.58 15.3378 186.641 14.963C187.701 14.5803 188.873 14.3889 190.157 14.3889C191.042 14.3889 191.923 14.4926 192.801 14.6999C193.678 14.9072 194.479 15.2501 195.205 15.7285C195.93 16.199 196.512 16.8409 196.951 17.6542C197.398 18.4676 197.621 19.4842 197.621 20.7042V33H193.458V30.4763H193.315C193.052 30.9866 192.681 31.465 192.203 31.9116C191.732 32.3501 191.138 32.705 190.42 32.9761C189.711 33.2392 188.877 33.3708 187.921 33.3708ZM189.045 30.1892C189.914 30.1892 190.668 30.0178 191.305 29.6749C191.943 29.324 192.434 28.8615 192.777 28.2874C193.128 27.7133 193.303 27.0873 193.303 26.4096V24.2446C193.167 24.3563 192.936 24.4599 192.609 24.5556C192.29 24.6513 191.931 24.735 191.533 24.8068C191.134 24.8786 190.739 24.9424 190.349 24.9982C189.958 25.054 189.619 25.1018 189.332 25.1417C188.686 25.2294 188.108 25.373 187.598 25.5723C187.087 25.7717 186.685 26.0507 186.39 26.4096C186.095 26.7604 185.947 27.2149 185.947 27.7731C185.947 28.5705 186.238 29.1725 186.82 29.5792C187.402 29.9859 188.144 30.1892 189.045 30.1892ZM208.454 14.6281V17.9772H197.893V14.6281H208.454ZM200.5 10.2265H204.83V27.4741C204.83 28.0562 204.918 28.5027 205.093 28.8137C205.276 29.1167 205.516 29.324 205.811 29.4357C206.106 29.5473 206.433 29.6031 206.791 29.6031C207.063 29.6031 207.31 29.5832 207.533 29.5433C207.764 29.5034 207.94 29.4676 208.059 29.4357L208.789 32.8206C208.558 32.9003 208.227 32.988 207.796 33.0837C207.374 33.1794 206.855 33.2352 206.241 33.2512C205.157 33.2831 204.18 33.1196 203.311 32.7608C202.442 32.394 201.752 31.8278 201.242 31.0623C200.739 30.2968 200.492 29.34 200.5 28.1917V10.2265ZM209.381 33V14.6281H213.71V33H209.381ZM211.558 12.0206C210.872 12.0206 210.282 11.7934 209.787 11.3389C209.293 10.8764 209.046 10.3222 209.046 9.67632C209.046 9.02246 209.293 8.46827 209.787 8.01376C210.282 7.55127 210.872 7.32003 211.558 7.32003C212.251 7.32003 212.841 7.55127 213.328 8.01376C213.822 8.46827 214.069 9.02246 214.069 9.67632C214.069 10.3222 213.822 10.8764 213.328 11.3389C212.841 11.7934 212.251 12.0206 211.558 12.0206ZM223.482 33.3588C221.688 33.3588 220.133 32.9641 218.817 32.1747C217.502 31.3853 216.481 30.2809 215.755 28.8615C215.038 27.4422 214.679 25.7836 214.679 23.8858C214.679 21.988 215.038 20.3255 215.755 18.8981C216.481 17.4708 217.502 16.3624 218.817 15.573C220.133 14.7836 221.688 14.3889 223.482 14.3889C225.276 14.3889 226.831 14.7836 228.147 15.573C229.463 16.3624 230.479 17.4708 231.197 18.8981C231.923 20.3255 232.285 21.988 232.285 23.8858C232.285 25.7836 231.923 27.4422 231.197 28.8615C230.479 30.2809 229.463 31.3853 228.147 32.1747C226.831 32.9641 225.276 33.3588 223.482 33.3588ZM223.506 29.8902C224.479 29.8902 225.292 29.623 225.946 29.0888C226.6 28.5466 227.086 27.8209 227.405 26.9119C227.732 26.0029 227.896 24.9902 227.896 23.8739C227.896 22.7495 227.732 21.7329 227.405 20.8238C227.086 19.9068 226.6 19.1772 225.946 18.635C225.292 18.0928 224.479 17.8217 223.506 17.8217C222.509 17.8217 221.68 18.0928 221.018 18.635C220.364 19.1772 219.874 19.9068 219.547 20.8238C219.228 21.7329 219.069 22.7495 219.069 23.8739C219.069 24.9902 219.228 26.0029 219.547 26.9119C219.874 27.8209 220.364 28.5466 221.018 29.0888C221.68 29.623 222.509 29.8902 223.506 29.8902ZM237.596 22.2352V33H233.266V14.6281H237.404V17.7499H237.619C238.042 16.7213 238.716 15.9039 239.641 15.2979C240.574 14.6919 241.726 14.3889 243.098 14.3889C244.365 14.3889 245.47 14.66 246.411 15.2022C247.36 15.7445 248.093 16.5299 248.612 17.5585C249.138 18.5872 249.397 19.8351 249.389 21.3023V33H245.059V21.9721C245.059 20.7441 244.74 19.7832 244.102 19.0895C243.472 18.3958 242.599 18.0489 241.483 18.0489C240.725 18.0489 240.052 18.2164 239.461 18.5513C238.879 18.8782 238.421 19.3527 238.086 19.9746C237.759 20.5966 237.596 21.3501 237.596 22.2352Z" fill="#CE4B55"/>
</svg>
