<svg width="24" height="24" viewBox="0 0 24 24" fill="none" xmlns="http://www.w3.org/2000/svg">
<path d="M20.3805 3.47127C19.2812 2.36681 17.972 1.49109 16.5292 0.895137C15.0863 0.299183 13.5387 -0.00508534 11.9765 6.4289e-05C5.4308 6.4289e-05 0.0959083 5.30826 0.0959083 11.8212C0.0959083 13.9087 0.64738 15.9366 1.67839 17.7259L0 23.8571L6.29397 22.211C8.0323 23.1534 9.98643 23.6544 11.9765 23.6544C18.5223 23.6544 23.8571 18.3462 23.8571 11.8332C23.8571 8.67211 22.6223 5.70191 20.3805 3.47127ZM11.9765 21.6504C10.2022 21.6504 8.46389 21.1732 6.94135 20.2786L6.58169 20.0639L2.84128 21.042L3.83632 17.4157L3.59655 17.0459C2.61056 15.4798 2.08711 13.6693 2.086 11.8212C2.086 6.40569 6.52175 1.99213 11.9645 1.99213C14.602 1.99213 17.0836 3.01798 18.9419 4.87884C19.8621 5.79001 20.5914 6.87394 21.0873 8.06773C21.5833 9.26152 21.8361 10.5414 21.8311 11.8332C21.8551 17.2487 17.4193 21.6504 11.9765 21.6504ZM17.3953 14.3024C17.0956 14.1592 15.633 13.4435 15.3693 13.3362C15.0935 13.2407 14.9017 13.193 14.6979 13.4793C14.4941 13.7775 13.9307 14.4455 13.7628 14.6364C13.595 14.8392 13.4151 14.863 13.1154 14.708C12.8157 14.5648 11.8566 14.2427 10.7297 13.2407C9.84257 12.4535 9.25513 11.4872 9.0753 11.189C8.90746 10.8908 9.05133 10.7358 9.20718 10.5807C9.33905 10.4495 9.50689 10.2348 9.65075 10.0678C9.79462 9.90075 9.85456 9.76954 9.95047 9.57868C10.0464 9.3759 9.99842 9.2089 9.92649 9.06575C9.85456 8.92261 9.25513 7.46733 9.01536 6.8709C8.77559 6.29833 8.52383 6.3699 8.34401 6.35798H7.76856C7.56475 6.35798 7.25305 6.42955 6.97731 6.72776C6.71357 7.02597 5.9463 7.74169 5.9463 9.19697C5.9463 10.6523 7.01328 12.0598 7.15714 12.2507C7.301 12.4535 9.25513 15.4356 12.2283 16.7119C12.9356 17.0221 13.4871 17.201 13.9187 17.3322C14.626 17.5589 15.2734 17.5231 15.7889 17.4515C16.3643 17.368 17.5512 16.7358 17.791 16.0439C18.0427 15.3521 18.0427 14.7676 17.9588 14.6364C17.8749 14.5052 17.695 14.4455 17.3953 14.3024Z" fill="#A6A6A6"/>
</svg>
