<svg width="109" height="109" viewBox="0 0 109 109" fill="none" xmlns="http://www.w3.org/2000/svg">
<g filter="url(#filter0_d_2_47733)">
<rect x="4" width="101" height="101" rx="50.5" fill="#1F3F66" shape-rendering="crispEdges"/>
<g clip-path="url(#clip0_2_47733)">
<path d="M85.6248 54.4659C84.3648 58.5215 80.1621 62.3277 75.1195 63.1179C75.9333 64.3779 76.306 65.9371 76.1091 67.667C75.5631 72.3631 71.0665 76.1457 66.2444 76.1956C62.9815 76.2192 58.5584 74.8096 55.4425 69.8904C52.6495 65.5171 52.2531 58.5687 52.45 56.4687C49.0401 59.9547 46.9139 63.341 45.9006 65.6877C43.6274 71.0034 42.7611 77.4793 42.811 80.519C42.811 80.519 42.391 80.9154 41.9973 80.9915C40.7373 80.7684 39.6479 80.2985 38.8315 79.5819C37.8445 78.6894 37.6214 77.8494 37.6214 77.8494C39.1281 70.3104 41.5274 65.6169 45.1105 60.2514C49.93 53.0064 57.3693 48.5334 66.1945 45.8401C72.5733 43.8871 79.1988 43.4671 83.7453 47.3232C86.1944 49.3497 86.3414 52.2661 85.6248 54.4659ZM48.0531 50.4627C46.5438 52.9827 42.4173 57.0384 39.1544 59.1384C32.3556 63.488 27.4626 63.7846 25.0135 62.228C24.7332 62.0552 24.4757 61.848 24.247 61.6111C22.3439 59.6082 22.6668 56.0487 24.8901 53.1324C25.9795 51.6991 27.3865 50.6859 28.7489 50.216C27.6831 49.7199 26.9665 48.683 26.8195 47.2235C26.5229 44.3097 28.7226 40.4772 31.7624 38.918C34.432 37.5582 40.1913 36.1985 44.4175 42.5037C46.0739 44.9502 47.557 48.4362 48.0531 50.4627ZM75.9831 23.9607C75.6156 20.3277 71.7306 18.9916 67.4571 20.8212C65.4306 21.6875 63.6509 23.1444 62.3909 24.8007C62.5878 23.147 62.1179 21.6875 60.9314 20.8212C58.582 19.115 54.3059 20.375 51.3895 23.5407C50.3763 24.6537 47.0635 28.6595 46.8903 34.5395C46.8168 37.3824 48.0768 43.6876 52.2295 48.0372C63.3044 43.8609 69.2605 37.4585 71.5338 34.8125C74.1561 31.7465 75.2665 29.0532 75.7364 27.0766C76.0829 25.5174 76.033 24.407 75.9831 23.9607Z" fill="white"/>
</g>
</g>
<defs>
<filter id="filter0_d_2_47733" x="0" y="0" width="109" height="109" filterUnits="userSpaceOnUse" color-interpolation-filters="sRGB">
<feFlood flood-opacity="0" result="BackgroundImageFix"/>
<feColorMatrix in="SourceAlpha" type="matrix" values="0 0 0 0 0 0 0 0 0 0 0 0 0 0 0 0 0 0 127 0" result="hardAlpha"/>
<feOffset dy="4"/>
<feGaussianBlur stdDeviation="2"/>
<feComposite in2="hardAlpha" operator="out"/>
<feColorMatrix type="matrix" values="0 0 0 0 0 0 0 0 0 0 0 0 0 0 0 0 0 0 0.25 0"/>
<feBlend mode="normal" in2="BackgroundImageFix" result="effect1_dropShadow_2_47733"/>
<feBlend mode="normal" in="SourceGraphic" in2="effect1_dropShadow_2_47733" result="shape"/>
</filter>
<clipPath id="clip0_2_47733">
<rect width="63" height="63" fill="white" transform="translate(23 19)"/>
</clipPath>
</defs>
</svg>
