<svg width="109" height="109" viewBox="0 0 109 109" fill="none" xmlns="http://www.w3.org/2000/svg">
<g filter="url(#filter0_d_2_47751)">
<rect x="4" width="101" height="101" rx="50.5" fill="#7D7D7D" shape-rendering="crispEdges"/>
<g clip-path="url(#clip0_2_47751)">
<path d="M68.3581 74.146L81.9897 66.2841V34.729L68.3581 26.8645C60.8611 22.5385 54.6267 19 54.5007 19C54.3747 19 48.1403 22.5385 40.6433 26.8645L27.0117 34.729V40.9082L40.6433 48.7728C48.1403 53.0988 54.3773 56.6372 54.5033 56.6372C54.6293 56.6372 58.3595 54.5451 62.7905 51.9857C65.4883 50.4143 68.1982 48.8637 70.9201 47.3342C70.9621 47.3342 70.991 50.2113 70.991 53.7314L70.9857 60.1259L62.9112 64.7774C58.4697 67.3367 54.7343 69.4577 54.6083 69.4892C54.4823 69.5207 50.747 67.4523 46.3081 64.8903C41.8692 62.3283 38.1365 60.2309 38.0105 60.2309C37.6036 60.2309 27.416 66.2001 27.4816 66.3996C27.563 66.6437 54.0886 81.9842 54.4561 82C54.6057 82.0052 60.8611 78.472 68.3581 74.146ZM48.8491 41.0264C45.9143 39.3201 43.5125 37.8764 43.5125 37.8186C43.5125 37.6322 54.17 31.5816 54.5007 31.5816C54.8288 31.5816 65.489 37.6322 65.489 37.8186C65.489 37.984 54.8656 44.053 54.506 44.0924C54.3275 44.1108 51.7838 42.73 48.8491 41.0264Z" fill="white"/>
</g>
</g>
<defs>
<filter id="filter0_d_2_47751" x="0" y="0" width="109" height="109" filterUnits="userSpaceOnUse" color-interpolation-filters="sRGB">
<feFlood flood-opacity="0" result="BackgroundImageFix"/>
<feColorMatrix in="SourceAlpha" type="matrix" values="0 0 0 0 0 0 0 0 0 0 0 0 0 0 0 0 0 0 127 0" result="hardAlpha"/>
<feOffset dy="4"/>
<feGaussianBlur stdDeviation="2"/>
<feComposite in2="hardAlpha" operator="out"/>
<feColorMatrix type="matrix" values="0 0 0 0 0 0 0 0 0 0 0 0 0 0 0 0 0 0 0.25 0"/>
<feBlend mode="normal" in2="BackgroundImageFix" result="effect1_dropShadow_2_47751"/>
<feBlend mode="normal" in="SourceGraphic" in2="effect1_dropShadow_2_47751" result="shape"/>
</filter>
<clipPath id="clip0_2_47751">
<rect width="63" height="63" fill="white" transform="translate(23 19)"/>
</clipPath>
</defs>
</svg>
